<?xml version="1.0" standalone="no"?>
<!DOCTYPE svg PUBLIC "-//W3C//DTD SVG 20010904//EN"
 "http://www.w3.org/TR/2001/REC-SVG-20010904/DTD/svg10.dtd">
<svg version="1.0" xmlns="http://www.w3.org/2000/svg"
 width="873.000000pt" height="766.000000pt" viewBox="0 0 873.000000 766.000000"
 preserveAspectRatio="xMidYMid meet">

<g transform="translate(0.000000,766.000000) scale(0.100000,-0.100000)"
fill="#000000" stroke="none">
<path d="M0 3830 l0 -3830 4365 0 4365 0 0 3830 0 3830 -4365 0 -4365 0 0
-3830z m5952 2727 c229 -117 413 -261 514 -403 41 -58 98 -175 139 -287 9 -27
31 -66 49 -87 17 -22 56 -70 87 -107 69 -85 132 -178 244 -363 48 -80 86 -138
83 -130 -36 108 -59 211 -78 345 -22 153 -60 320 -111 487 -29 92 -54 166 -56
164 -4 -4 91 -439 132 -605 14 -57 24 -108 23 -113 -6 -16 -156 460 -173 547
-8 45 -19 123 -24 175 -9 87 -9 81 -7 -70 2 -131 7 -183 25 -255 27 -105 71
-217 119 -298 19 -32 33 -60 30 -62 -9 -9 -96 151 -126 230 -16 44 -38 114
-47 155 -27 113 -25 548 1 475 3 -6 41 -67 85 -135 169 -262 182 -306 184
-635 2 -271 10 -324 75 -480 70 -166 189 -458 196 -479 14 -44 17 28 5 184
-20 287 -21 549 -2 671 10 60 14 106 10 102 -4 -4 -12 -37 -18 -73 -5 -36 -19
-118 -31 -183 -11 -65 -20 -137 -20 -160 0 -35 22 -190 46 -322 3 -21 2 -26
-5 -15 -5 8 -20 65 -33 125 -35 167 -32 355 10 530 31 132 79 305 87 313 8 8
44 -77 91 -218 l49 -145 -1 -165 0 -165 -70 -198 c-69 -198 -102 -251 -46 -75
17 51 33 109 36 128 6 31 5 30 -12 -11 -32 -79 -60 -201 -63 -274 -5 -134 -2
-191 30 -460 17 -148 31 -312 31 -364 l0 -94 40 79 c44 86 56 84 14 -3 -19
-41 -29 -86 -39 -186 -29 -272 -94 -552 -170 -732 l-17 -40 30 35 c17 19 41
52 54 74 13 21 39 57 59 80 20 22 62 77 94 121 32 44 80 105 105 135 79 93
199 274 188 285 -11 11 -289 -353 -343 -451 -20 -35 -38 -64 -40 -64 -3 0 7
26 21 58 14 31 27 68 29 82 6 44 72 216 109 287 53 100 128 194 219 276 44 39
110 99 145 132 l65 60 -7 -63 c-13 -119 -100 -383 -157 -477 -47 -79 -169
-206 -305 -321 -64 -53 -132 -118 -152 -145 -20 -27 -39 -49 -43 -49 -10 0
-77 -112 -124 -208 -79 -162 -229 -398 -348 -549 -27 -35 -52 -62 -54 -59 -3
3 -23 -17 -44 -44 -22 -28 -43 -49 -48 -47 -11 3 -212 -208 -205 -215 2 -3 -3
-11 -13 -19 -14 -12 -15 -12 -9 0 6 9 5 12 -5 9 -8 -3 -13 -11 -12 -17 2 -6
-2 -10 -9 -8 -7 1 -12 -5 -13 -13 0 -8 -5 -15 -12 -15 -20 0 -74 -46 -67 -57
4 -6 3 -8 -4 -4 -13 8 -164 -99 -154 -109 4 -5 2 -6 -3 -2 -6 3 -19 -1 -30 -9
-10 -8 -15 -14 -10 -14 5 0 -14 -16 -44 -35 -29 -19 -57 -33 -62 -29 -5 3 -30
-13 -57 -34 -138 -116 -653 -349 -844 -382 -65 -11 -95 -20 -163 -51 -22 -9
-166 -67 -320 -127 -169 -67 -280 -116 -280 -124 0 -7 5 -12 12 -11 6 2 14 -6
18 -16 3 -10 54 -44 113 -76 59 -32 177 -98 262 -147 85 -48 159 -90 165 -92
11 -5 -13 -26 -31 -26 -5 0 -37 16 -70 36 -32 20 -79 47 -104 61 -170 96 -232
130 -279 156 -30 15 -66 37 -80 47 -14 10 -45 24 -69 31 -37 11 -47 10 -78 -4
-19 -9 -42 -17 -50 -17 -8 0 -12 -4 -9 -10 3 -6 -1 -7 -10 -4 -10 4 -15 2 -13
-6 2 -7 -7 -13 -19 -15 -13 -1 -26 -5 -30 -10 -5 -4 0 -5 10 -2 39 14 9 -5
-145 -94 -90 -51 -183 -105 -207 -121 -34 -21 -57 -28 -94 -28 l-50 0 54 28
c30 16 115 64 189 107 74 43 193 106 264 141 l129 63 -34 20 c-19 12 -54 28
-79 38 -25 9 -76 30 -115 46 -139 59 -402 160 -475 181 -41 13 -89 30 -105 38
-43 23 -141 121 -198 198 -26 36 -80 103 -118 150 -39 47 -120 159 -181 250
-106 159 -157 225 -166 215 -2 -2 5 -16 16 -32 11 -15 46 -75 77 -133 83 -150
164 -265 240 -340 36 -36 91 -94 123 -130 57 -64 57 -64 15 -35 -22 17 -39 33
-37 37 2 3 -24 29 -58 56 -144 114 -234 231 -352 455 -67 126 -91 162 -60 90
8 -21 19 -62 24 -90 14 -86 82 -216 162 -312 39 -47 59 -75 44 -61 -49 44
-148 173 -168 219 -10 24 -44 119 -75 210 -30 91 -60 175 -66 186 -29 53 -17
55 61 5 175 -112 360 -310 447 -480 10 -19 42 -93 71 -165 78 -193 119 -226
410 -334 191 -71 326 -124 496 -197 70 -30 141 -54 158 -54 18 0 64 15 103 34
40 18 194 81 342 140 149 58 325 133 393 167 l123 61 39 79 c22 43 54 113 70
154 64 161 131 259 281 406 100 98 258 219 287 219 19 0 15 -15 -32 -155 -43
-131 -93 -242 -103 -232 -3 3 -19 -21 -35 -54 -42 -83 -171 -217 -267 -276
-42 -25 -83 -51 -92 -57 -35 -25 44 43 119 101 112 88 194 183 198 231 2 29 0
33 -7 19 -6 -9 -13 -15 -17 -13 -4 3 -8 -7 -9 -22 0 -15 1 -19 4 -9 2 9 9 17
14 17 6 0 5 -9 -2 -22 -11 -20 -13 -20 -24 -5 -11 15 -17 11 -55 -39 -24 -32
-92 -104 -151 -162 -60 -58 -106 -109 -102 -115 3 -6 1 -7 -5 -3 -5 3 -12 2
-14 -2 -1 -4 -24 -23 -50 -41 -27 -17 -48 -36 -48 -40 0 -5 -28 -27 -62 -50
-78 -52 -59 -47 164 45 380 157 591 283 687 409 45 59 50 73 66 162 10 54 21
105 26 113 10 16 9 9 -11 -95 -20 -104 -29 -129 -65 -184 -37 -59 -39 -77 -2
-44 12 11 57 44 100 72 264 176 523 449 542 569 3 20 10 51 15 67 8 24 9 16 6
-36 -2 -38 -12 -85 -25 -114 l-22 -50 38 44 c77 90 211 273 263 360 29 50 57
88 63 84 6 -3 7 -1 3 5 -4 6 19 60 51 119 31 59 69 143 84 188 16 44 28 71 28
60 0 -11 -8 -43 -18 -72 -10 -29 -14 -50 -9 -47 16 10 40 114 33 145 -6 25 -4
30 6 23 12 -7 12 -5 1 9 -8 9 -11 25 -7 36 20 64 -3 166 -85 366 -63 153 -99
256 -134 380 -67 236 -77 267 -81 263 -3 -2 6 -49 19 -104 35 -142 41 -188 25
-179 -9 6 -11 3 -6 -9 4 -10 16 -52 28 -94 11 -42 27 -92 35 -111 8 -18 13
-35 11 -38 -8 -7 -45 91 -66 172 -11 44 -25 121 -31 170 -12 95 -19 128 -49
240 -11 38 -18 71 -16 73 9 9 177 -173 219 -237 55 -82 115 -209 146 -306 36
-115 41 -434 7 -422 -7 2 -15 26 -20 53 -16 98 -68 295 -106 402 -39 110 -115
282 -125 282 -6 0 -7 2 104 -340 51 -157 99 -310 107 -340 8 -30 21 -66 30
-79 10 -16 14 -38 10 -66 -5 -49 8 -83 18 -50 4 11 11 31 16 45 8 23 24 90 88
365 14 58 19 109 16 140 -3 37 -2 43 4 25 25 -70 3 287 -24 390 -8 30 -12 56
-10 58 2 2 9 -16 15 -39 6 -24 13 -48 15 -54 8 -18 -11 148 -35 310 -5 33 -12
96 -16 140 -3 43 -11 91 -16 105 -5 14 -12 42 -14 62 -6 61 -141 401 -156 392
-4 -3 -5 3 -1 12 4 12 3 15 -5 10 -8 -5 -10 -1 -5 10 4 12 3 15 -5 10 -8 -5
-10 -1 -5 10 4 12 3 15 -5 10 -8 -5 -10 -1 -5 10 5 13 3 15 -7 9 -9 -5 -11 -4
-6 3 4 7 2 20 -4 29 -10 16 -11 16 -5 -2 10 -33 -8 -7 -20 28 -13 38 -95 179
-199 342 -77 122 -122 183 -149 203 -9 7 -15 17 -13 21 3 4 -13 27 -35 51 -22
25 -48 60 -56 78 -9 19 -23 36 -32 40 -9 3 -61 40 -116 81 -116 89 -298 266
-375 367 -121 156 -211 264 -220 261 -5 -1 -21 17 -35 41 -15 23 -24 42 -21
42 3 0 60 -28 128 -63z m-3185 11 c-8 -13 -73 -120 -143 -238 -118 -197 -138
-224 -229 -315 -82 -82 -117 -109 -199 -153 -54 -29 -100 -51 -102 -49 -2 1
31 23 73 47 152 89 246 176 326 301 24 38 31 56 21 56 -8 0 -14 -6 -14 -13 0
-8 -7 -11 -17 -8 -13 4 -15 3 -5 -4 11 -7 6 -16 -18 -41 -17 -17 -36 -31 -41
-31 -5 0 -14 -12 -19 -26 -6 -16 -14 -23 -22 -18 -7 4 -10 4 -6 -1 9 -9 -9
-35 -24 -35 -5 0 -6 6 -2 13 6 9 3 8 -8 -1 -10 -8 -14 -20 -11 -29 5 -12 2
-15 -8 -11 -9 3 -36 -10 -63 -31 -27 -20 -69 -51 -95 -69 -117 -82 -200 -157
-261 -234 -67 -85 -206 -287 -247 -358 -18 -30 -46 -71 -62 -90 l-31 -35 11
30 c6 16 20 43 33 60 12 16 40 62 63 100 73 125 174 266 185 259 7 -4 8 -2 4
5 -7 11 32 76 41 67 8 -8 63 46 57 56 -6 9 137 231 156 243 6 3 8 10 5 15 -3
5 21 36 53 68 32 33 64 73 71 88 l13 29 -21 -21 c-11 -12 -24 -24 -28 -25 -13
-6 -96 -109 -151 -188 -29 -41 -52 -71 -52 -68 0 4 17 39 37 77 80 151 206
283 385 402 79 53 333 195 352 197 5 1 2 -9 -7 -21z m3212 -183 c32 -55 83
-140 112 -190 95 -160 159 -216 380 -327 78 -40 145 -79 147 -87 3 -10 -6 -7
-26 8 -17 12 -75 42 -128 67 -214 99 -321 199 -439 409 -43 77 -93 165 -111
196 -19 31 -34 61 -34 65 1 15 36 -36 99 -141z m-4132 -202 c-4 -166 -9 -214
-31 -299 -22 -88 -124 -343 -148 -369 -11 -12 12 63 42 135 27 65 35 140 17
152 -17 11 -29 10 -22 -2 4 -6 2 -16 -3 -23 -6 -7 -24 -66 -41 -132 -40 -152
-42 -158 -48 -151 -5 5 20 117 99 454 22 95 38 175 35 178 -3 3 -24 -43 -47
-103 -45 -116 -81 -261 -102 -413 -7 -52 -14 -84 -16 -70 -4 25 14 225 25 270
5 24 5 24 -10 5 -15 -19 -16 -18 -10 20 10 70 50 178 91 245 22 36 38 67 35
70 -2 2 -8 -2 -13 -10 -6 -8 -10 -11 -10 -6 0 19 -75 -132 -101 -204 -31 -84
-40 -74 -10 11 32 93 80 180 175 312 50 70 93 127 95 127 2 0 1 -89 -2 -197z
m3014 -303 c36 0 -46 -61 -86 -64 -11 -1 -19 -7 -18 -13 1 -6 -5 -10 -15 -9
-9 0 -17 -6 -17 -14 0 -8 -15 -24 -33 -37 l-33 -22 38 -19 c131 -68 223 -224
223 -380 0 -107 -60 -263 -131 -343 -17 -19 -25 -25 -18 -14 7 11 -13 -8 -44
-42 -63 -68 -122 -114 -209 -163 -81 -45 -72 -31 11 19 92 54 181 139 181 171
0 25 -1 24 -30 -8 -16 -19 -39 -47 -52 -63 -30 -39 -164 -129 -252 -169 -97
-44 -208 -79 -296 -95 -41 -7 -63 -13 -48 -14 16 -1 27 -5 25 -9 -1 -5 13 -22
32 -37 71 -60 107 -211 98 -412 -5 -120 -4 -133 11 -133 15 -1 15 -2 -2 -15
-17 -13 -18 -25 -13 -132 6 -140 32 -236 79 -289 31 -35 121 -94 145 -94 27 0
66 -21 56 -31 -12 -12 -138 11 -207 38 -27 11 -75 42 -107 68 -72 60 -102 69
-64 19 32 -42 16 -45 -19 -4 -20 24 -24 38 -20 63 4 22 3 28 -4 19 -11 -16
-33 59 -31 105 2 23 3 21 9 -12 7 -33 8 -27 7 32 -1 39 -5 69 -9 67 -4 -3 -8
5 -8 18 0 19 2 20 10 8 8 -12 10 -8 11 15 1 76 16 245 17 207 1 -29 6 -41 13
-36 17 10 5 345 -14 404 -26 78 -49 109 -95 127 -38 14 -52 15 -105 4 -34 -6
-70 -12 -79 -13 -9 -2 -31 -30 -51 -68 -19 -36 -63 -119 -97 -185 -104 -199
-293 -460 -414 -572 -69 -64 -204 -167 -250 -190 -44 -22 -23 -4 74 63 125 87
287 252 261 268 -5 3 -42 -33 -82 -80 -188 -222 -453 -368 -689 -380 -83 -4
-102 -2 -149 18 -64 27 -112 81 -113 127 -1 41 -18 41 -18 0 0 -21 12 -47 36
-78 l36 -46 -41 42 c-44 46 -54 91 -27 128 20 28 46 12 46 -29 0 -74 89 -136
195 -136 177 0 385 97 545 253 59 57 151 157 145 157 -2 0 8 13 23 30 31 34
105 157 276 461 12 21 37 66 57 100 20 35 52 99 73 142 41 88 191 341 262 444
172 248 375 464 543 577 64 44 85 37 39 -12 l-33 -36 41 34 c22 19 39 40 37
46 -6 17 17 28 30 15 8 -8 6 -11 -8 -11 -10 0 -15 -3 -12 -7 4 -3 -51 -65
-121 -137 -70 -72 -154 -163 -185 -203 -137 -173 -395 -608 -412 -697 -4 -15
0 -17 18 -11 12 4 74 11 137 15 136 9 231 34 355 95 172 83 277 181 350 326
81 164 97 334 42 453 -17 36 -21 54 -12 46 10 -8 15 -9 15 -2 0 28 -109 123
-185 162 -86 43 -91 48 -26 25 45 -15 57 -5 15 14 -76 34 -211 54 -411 59
-221 5 -324 -4 -500 -44 -117 -26 -255 -72 -248 -83 6 -11 -205 -112 -218
-105 -7 4 -9 4 -5 -1 4 -4 -41 -39 -99 -78 -179 -118 -295 -249 -391 -442 -63
-125 -86 -214 -87 -325 0 -123 24 -176 108 -234 53 -37 63 -40 139 -44 96 -5
177 17 262 72 64 41 168 151 223 236 68 105 70 107 84 93 15 -15 -13 -88 -62
-160 -69 -102 -216 -224 -286 -238 -10 -1 -46 -10 -79 -19 -116 -30 -230 -18
-310 32 -47 29 -110 117 -106 147 2 16 1 17 -7 6 -17 -25 -24 32 -18 138 6
110 35 209 99 336 119 237 301 405 593 550 285 140 526 195 865 194 188 0 265
-8 438 -45 l122 -27 53 34 c87 55 171 98 185 93 8 -2 18 -4 23 -4z m-2890 -33
c-10 -9 -11 -8 -5 6 3 10 9 15 12 12 3 -3 0 -11 -7 -18z m-420 -77 c-7 -46 -9
-49 -10 -19 -1 42 12 112 16 89 2 -8 -1 -40 -6 -70z m529 35 c0 -2 -10 -9 -22
-15 -22 -11 -22 -10 -4 4 21 17 26 19 26 11z m-830 -127 c60 -189 95 -423 85
-563 -6 -85 -44 -296 -55 -310 -4 -5 -10 -21 -12 -35 -9 -53 -17 47 -28 350
-6 168 -14 339 -18 380 l-7 75 -6 -75 c-13 -149 -9 -333 11 -526 12 -108 19
-199 16 -201 -2 -2 -7 13 -10 34 -3 21 -17 115 -31 208 -14 94 -35 197 -45
229 -29 88 -24 188 16 301 7 22 16 72 18 110 5 78 14 125 26 125 4 0 22 -46
40 -102z m2577 96 c-3 -3 -12 -4 -19 -1 -8 3 -5 6 6 6 11 1 17 -2 13 -5z m410
0 c-3 -3 -12 -4 -19 -1 -8 3 -5 6 6 6 11 1 17 -2 13 -5z m-610 -30 c-3 -3 -12
-4 -19 -1 -8 3 -5 6 6 6 11 1 17 -2 13 -5z m-1167 -50 c0 -13 -272 -281 -330
-325 -91 -69 -220 -133 -317 -158 -125 -32 -122 -24 5 13 62 18 118 39 125 46
9 10 9 11 -1 6 -18 -10 -76 -27 -69 -20 10 11 162 83 165 79 2 -2 -14 -13 -37
-25 -23 -11 -41 -23 -41 -25 0 -3 19 4 43 16 61 31 149 104 252 209 l90 92
-70 -51 c-187 -137 -264 -186 -380 -241 -122 -58 -187 -87 -225 -101 -24 -9
-24 -9 -5 6 11 9 61 37 110 62 152 78 267 143 335 191 36 25 87 61 115 79 68
45 44 42 -37 -6 -37 -22 -139 -77 -225 -122 -184 -96 -235 -127 -322 -197 -35
-29 -66 -51 -68 -49 -1 2 53 60 120 129 190 194 306 261 612 354 152 46 155
47 155 38z m-1317 -147 c-20 -69 -39 -124 -41 -122 -6 5 12 74 45 178 39 123
36 85 -4 -56z m5268 97 c197 -62 316 -140 487 -320 109 -115 139 -160 61 -92
-30 26 -101 78 -159 115 -107 68 -379 213 -402 213 -21 0 61 -54 193 -128 231
-129 404 -242 381 -250 -6 -2 -26 8 -44 21 -18 14 -95 59 -171 101 -201 111
-432 258 -489 312 -16 14 -28 21 -28 16 0 -12 188 -193 255 -246 66 -52 77
-64 40 -41 -86 52 -321 278 -309 297 4 6 3 8 -3 5 -6 -4 -19 3 -29 15 l-19 21
76 -6 c42 -4 114 -18 160 -33z m-4861 -369 c-11 -38 -23 -84 -28 -100 -5 -17
-7 -44 -5 -61 4 -23 -8 -53 -51 -130 -78 -140 -175 -372 -192 -460 -18 -97
-46 -409 -38 -439 5 -21 12 -16 87 54 267 251 334 326 396 448 21 41 15 67 -9
38 -7 -8 -17 -12 -24 -8 -6 3 -6 0 2 -8 14 -15 16 -33 3 -25 -5 4 -7 -2 -5
-12 3 -9 -4 -27 -15 -38 -11 -12 -17 -25 -14 -28 4 -3 -1 -6 -10 -6 -10 0 -17
-4 -17 -9 0 -20 -233 -261 -252 -261 -4 0 15 21 42 46 52 49 160 176 160 189
0 4 9 20 21 36 36 50 11 31 -30 -23 -60 -80 -136 -159 -154 -162 -9 -1 -29
-13 -44 -27 -40 -35 -12 2 57 76 31 33 100 116 155 185 54 69 114 144 133 168
113 142 -99 -60 -237 -225 -56 -68 -105 -123 -108 -123 -3 0 0 6 6 14 7 8 14
25 16 37 3 13 12 30 22 37 9 6 14 12 10 12 -8 0 63 98 101 140 12 14 22 30 22
37 0 6 17 28 38 49 l37 37 -46 -37 c-25 -20 -51 -36 -58 -36 -7 0 -9 -5 -5
-12 4 -7 4 -10 -1 -6 -8 8 -35 -15 -35 -29 0 -5 -8 -18 -17 -29 -10 -11 -24
-31 -32 -45 -84 -140 -109 -168 -48 -52 43 84 125 195 138 188 5 -4 8 -1 7 7
-2 7 3 12 10 10 8 -1 11 1 8 6 -11 18 138 133 235 182 59 30 129 48 129 33 0
-14 -116 -237 -184 -353 -63 -109 -143 -196 -374 -410 -91 -85 -92 -86 -107
-155 -9 -39 -18 -144 -22 -235 -7 -191 9 -342 59 -542 16 -68 32 -135 35 -150
7 -39 19 -27 27 27 12 77 21 57 21 -48 0 -87 5 -117 34 -207 66 -208 218 -473
385 -674 36 -43 66 -81 66 -83 0 -28 -156 159 -252 302 -97 144 -180 308 -215
427 -15 48 -30 85 -34 83 -4 -3 -5 5 -1 17 3 13 1 19 -5 15 -6 -4 -14 3 -17
16 -29 102 -41 152 -70 290 -18 86 -36 154 -41 150 -4 -5 -5 0 -2 10 10 28
-21 277 -42 338 -24 69 -95 226 -159 351 -84 164 -120 271 -148 437 -8 51 -26
127 -39 168 -14 42 -27 94 -29 117 -2 22 -8 54 -12 71 -6 26 -8 27 -15 10 -5
-14 -8 -4 -8 30 l-1 50 18 -26 c9 -15 46 -69 81 -120 89 -130 199 -324 216
-384 12 -40 50 -365 53 -450 3 -81 48 -269 62 -260 6 4 24 233 23 295 -1 14 4
97 9 185 5 88 10 186 10 217 0 32 4 55 9 52 5 -3 9 8 9 24 0 47 55 210 155
458 96 238 135 352 135 397 0 14 3 34 7 44 6 14 9 11 14 -17 5 -23 1 -58 -11
-105z m-463 3 c-2 -13 -4 -3 -4 22 0 25 2 35 4 23 2 -13 2 -33 0 -45z m5488
32 c3 0 3 5 -1 12 -4 7 -3 8 5 4 6 -4 8 -12 5 -18 -5 -7 -1 -9 9 -5 10 4 16 2
14 -5 -1 -6 4 -13 12 -16 8 -3 11 0 7 7 -9 14 -9 14 49 -9 28 -12 39 -18 25
-15 -70 15 -68 12 17 -22 51 -20 91 -38 90 -40 -13 -12 -277 105 -277 123 0 3
9 0 19 -6 11 -5 22 -10 26 -10z m-5468 -142 c-2 -13 -4 -3 -4 22 0 25 2 35 4
23 2 -13 2 -33 0 -45z m10 -65 c-3 -10 -5 -4 -5 12 0 17 2 24 5 18 2 -7 2 -21
0 -30z m41 -226 c6 -20 7 -35 2 -32 -11 7 -28 80 -34 150 l-5 60 13 -70 c7
-38 18 -87 24 -108z m5575 62 c88 -45 209 -131 272 -194 95 -95 216 -290 255
-410 7 -22 30 -77 52 -122 21 -46 41 -97 45 -115 l6 -33 -34 42 c-19 22 -60
77 -93 122 -32 44 -62 78 -67 75 -4 -2 -5 -12 -2 -21 5 -11 3 -14 -6 -9 -7 5
-11 16 -8 26 3 13 0 17 -10 13 -7 -3 -13 -2 -11 3 1 5 -28 39 -64 76 -36 37
-103 123 -149 190 -82 124 -119 175 -119 166 0 -6 36 -85 55 -122 25 -46 11
-40 -20 9 -15 25 -30 43 -32 41 -11 -10 85 -179 138 -243 33 -40 56 -73 51
-73 -24 0 -148 184 -207 305 -35 72 -81 161 -103 199 -56 96 -40 120 51 75z
m1076 -234 c1 -262 -43 -454 -141 -610 -51 -80 -181 -255 -186 -250 -3 2 0 10
5 17 6 7 14 24 18 37 4 13 21 47 38 75 94 158 115 206 88 206 -9 0 -34 -49
-90 -174 -17 -38 -34 -67 -37 -63 -3 3 0 15 6 28 23 43 120 330 144 427 37
152 39 158 27 147 -9 -9 -96 -259 -172 -493 -18 -57 -36 -105 -39 -107 -13 -8
-21 189 -10 243 28 147 77 305 92 296 6 -4 8 -2 5 4 -10 15 3 43 16 35 5 -3 7
-1 3 5 -8 13 14 63 25 56 5 -3 6 1 3 9 -3 8 23 56 60 108 36 52 80 119 98 149
l33 55 6 -30 c4 -16 7 -93 8 -170z m-7032 -37 c1 -206 12 -276 69 -426 13 -36
23 -67 20 -69 -5 -5 -52 125 -77 211 -23 81 -36 301 -25 409 4 37 8 67 9 67 1
0 3 -87 4 -192z m407 146 c3 -8 2 -12 -4 -9 -6 3 -10 10 -10 16 0 14 7 11 14
-7z m75 -129 c1 -16 -1 -17 -9 -5 -5 8 -9 31 -9 50 l1 35 8 -30 c4 -16 8 -39
9 -50z m-18 -52 c1 -16 1 -48 -1 -73 -2 -38 -4 -34 -10 30 -4 41 -10 93 -14
115 l-6 40 15 -42 c7 -24 15 -55 16 -70z m3149 62 c-14 -8 -29 -14 -35 -14 -5
0 1 6 15 14 14 8 30 14 35 14 6 0 -1 -6 -15 -14z m-2666 -80 c-4 -8 -11 -15
-16 -15 -6 0 -5 6 2 15 7 8 14 15 16 15 2 0 1 -7 -2 -15z m4264 -11 c154 -45
199 -191 121 -395 -16 -42 -53 -110 -81 -150 -73 -105 -336 -363 -292 -286 4
7 3 9 -2 4 -5 -5 -9 -12 -9 -15 0 -13 -16 -32 -27 -32 -6 0 -5 7 3 18 13 15
12 16 -3 3 -10 -7 -16 -17 -13 -21 3 -4 -25 -26 -61 -49 -72 -45 -101 -56 -41
-16 51 35 47 40 -7 8 -25 -15 -43 -30 -40 -34 2 -4 -1 -11 -7 -15 -8 -4 -9 -3
-5 4 4 7 5 12 3 12 -14 0 -248 -118 -241 -122 5 -3 3 -3 -5 -1 -8 2 -23 1 -34
-3 -16 -5 -17 -8 -6 -16 11 -8 10 -8 -5 -4 -10 3 -48 -3 -84 -14 -99 -31 -242
-51 -363 -52 -69 0 -112 -4 -117 -12 -13 -15 -48 -121 -61 -181 -19 -92 -23
-159 -11 -230 26 -163 98 -245 243 -275 188 -38 516 155 698 411 129 182 233
277 312 285 37 4 40 3 23 -8 -100 -66 -149 -146 -235 -382 -159 -433 -270
-638 -452 -830 -50 -53 -128 -124 -173 -157 -79 -59 -285 -169 -316 -169 -8 0
23 18 70 39 102 46 174 88 251 147 60 46 197 190 247 260 47 65 112 175 112
189 0 7 3 15 8 17 9 4 52 91 58 120 3 13 7 39 10 58 8 58 9 64 23 88 7 13 11
31 9 40 -4 18 -88 -119 -88 -143 0 -8 -4 -17 -10 -20 -5 -3 -10 -17 -10 -31 0
-13 -5 -24 -10 -24 -6 0 -9 -3 -8 -7 3 -15 -16 -68 -29 -81 -7 -7 -13 -22 -13
-32 0 -10 -4 -20 -9 -22 -5 -1 -20 -27 -35 -55 -14 -29 -31 -53 -37 -53 -7 0
-6 -6 2 -17 8 -9 9 -14 4 -11 -6 4 -15 4 -21 0 -12 -9 -114 -140 -114 -147 0
-8 -112 -118 -155 -151 -86 -67 -250 -142 -369 -169 -202 -45 -399 -22 -526
63 -14 9 -29 17 -35 17 -5 0 -10 5 -11 10 0 6 -6 22 -12 36 -32 78 -26 150 16
201 23 27 24 31 7 24 -19 -7 -19 -6 -3 10 14 14 20 15 32 5 13 -11 13 -17 0
-46 -48 -116 29 -248 169 -290 76 -22 243 -21 337 4 164 42 319 128 412 230
90 98 220 305 333 531 60 118 120 233 135 255 55 83 52 84 -33 12 -34 -30 -85
-71 -112 -92 -28 -21 -50 -42 -50 -47 0 -6 -19 -21 -42 -35 -24 -14 -43 -23
-43 -20 0 3 19 18 43 32 53 33 42 30 -53 -17 -109 -53 -186 -71 -320 -72 -110
-1 -117 0 -169 29 -55 31 -89 65 -127 132 -12 21 -27 37 -33 35 -11 -2 -15 18
-12 47 2 7 -2 10 -8 6 -6 -3 -16 5 -22 19 -9 20 -9 29 1 41 10 12 10 15 -1 16
-10 0 -10 2 -2 5 7 3 9 12 6 20 -3 9 1 14 13 14 18 1 18 1 2 11 -10 5 -18 15
-18 20 0 6 5 7 10 4 6 -3 11 -3 11 2 7 49 6 69 -3 80 -10 12 0 18 25 14 4 -1
5 10 1 24 -4 15 -2 25 4 25 6 0 11 8 11 18 0 9 2 31 5 47 3 17 3 21 0 10 -3
-11 -10 -24 -15 -29 -5 -6 -9 -18 -9 -27 0 -10 -8 -24 -17 -31 -10 -7 -19 -22
-21 -33 -1 -11 -4 -35 -6 -53 -2 -18 -7 -36 -11 -40 -5 -4 -5 -1 0 7 6 10 4
12 -5 6 -10 -6 -12 -1 -7 26 5 31 5 32 -5 11 -8 -17 -9 -29 -1 -40 7 -12 6
-38 -2 -87 l-12 -70 -8 80 c-9 90 2 152 70 381 6 18 2 20 -32 18 -22 -2 -27 0
-13 3 14 3 31 10 37 15 19 15 86 140 133 247 64 148 145 257 320 432 262 263
495 411 755 479 90 24 237 26 313 4z m-1967 -110 c28 -61 51 -293 29 -279 -5
3 -10 39 -10 78 0 93 -24 204 -52 242 -17 24 -18 27 -3 15 10 -8 26 -33 36
-56z m-3181 -143 c29 -90 91 -229 126 -281 12 -18 9 -17 -9 5 -38 43 -73 112
-111 216 -31 87 -52 169 -41 158 2 -3 18 -47 35 -98z m6235 -58 c31 -27 -5 -2
-42 28 -17 15 -29 30 -26 32 3 3 15 -5 27 -18 11 -13 30 -32 41 -42z m-5766
-131 c-30 -32 -56 -56 -58 -55 -5 4 100 113 108 113 2 0 -20 -26 -50 -58z
m391 -247 c-23 -275 -49 -355 -185 -564 -37 -58 -74 -120 -83 -138 -9 -18 -19
-33 -24 -33 -13 0 9 46 82 166 77 126 89 166 19 60 -49 -73 -78 -96 -52 -41 9
19 20 35 24 35 4 0 10 8 13 18 10 28 33 64 46 72 7 4 13 19 13 34 1 14 5 26 9
26 3 0 4 9 1 20 -5 19 -6 19 -19 -6 -8 -14 -16 -36 -18 -48 -8 -40 -18 -58
-26 -46 -5 8 -9 7 -13 -5 -5 -10 -3 -14 4 -9 7 4 10 2 8 -5 -3 -7 -8 -11 -13
-9 -4 2 -26 -32 -48 -76 -60 -119 -55 -85 7 51 31 66 58 136 60 156 3 19 16
72 31 117 14 45 24 84 21 86 -10 10 -152 -322 -188 -441 -18 -56 -18 -57 -13
-15 4 25 15 78 25 118 11 40 17 82 14 95 -6 23 54 207 89 275 25 48 11 39 -19
-13 -29 -48 -88 -207 -106 -283 -7 -26 -15 -78 -19 -117 l-7 -70 -2 57 c-2 95
43 269 98 375 31 61 112 171 197 268 77 88 79 89 83 60 1 -16 -2 -93 -9 -170z
m2784 156 c31 -35 32 -94 2 -156 -32 -65 -111 -154 -175 -197 -45 -30 -45 -31
-22 -4 14 14 26 33 27 41 1 9 16 31 33 50 16 19 34 52 39 72 20 83 28 144 20
149 -4 3 -8 0 -8 -6 0 -6 -4 -9 -10 -5 -5 3 -7 12 -4 20 4 8 10 12 15 9 5 -3
9 0 9 5 0 17 -72 13 -134 -9 -60 -20 -67 -11 -13 17 49 25 77 31 143 32 48 1
65 -3 78 -18z m-3453 -108 c13 -16 12 -17 -3 -4 -10 7 -18 15 -18 17 0 8 8 3
21 -13z m2989 7 c0 -5 -5 -10 -11 -10 -5 0 -7 5 -4 10 3 6 8 10 11 10 2 0 4
-4 4 -10z m-3296 -69 c133 -112 255 -246 325 -357 28 -44 121 -309 121 -345 0
-28 68 -185 104 -239 31 -47 45 -80 33 -80 -5 0 -97 147 -97 155 0 4 -15 24
-34 44 -173 183 -263 313 -397 570 -24 46 -56 107 -71 135 -15 28 -31 65 -36
81 -6 17 -17 47 -26 68 -9 20 -13 37 -10 37 4 0 43 -31 88 -69z m3271 30 c2
-12 -2 -39 -10 -60 -9 -27 -10 -42 -3 -49 14 -14 -42 -42 -85 -42 -30 0 -35 4
-40 27 -3 18 2 36 16 55 22 30 108 101 114 94 2 -2 5 -13 8 -25z m-2934 -8
c13 -16 12 -17 -3 -4 -10 7 -18 15 -18 17 0 8 8 3 21 -13z m2852 -170 c-7 -2
-21 -2 -30 0 -10 3 -4 5 12 5 17 0 24 -2 18 -5z m3024 -65 c-3 -7 -5 -2 -5 12
0 14 2 19 5 13 2 -7 2 -19 0 -25z m-6197 -88 c24 -58 47 -111 53 -118 5 -7 7
-15 4 -19 -9 -8 12 -45 22 -38 5 2 8 -3 7 -12 0 -10 4 -18 11 -18 6 0 14 -3
18 -7 4 -3 -1 -5 -12 -4 -26 4 -68 77 -107 186 -63 179 -62 193 4 30z m3500
84 c0 -8 -4 -12 -10 -9 -5 3 -10 10 -10 16 0 5 5 9 10 9 6 0 10 -7 10 -16z
m2751 -168 c10 -27 17 -51 15 -53 -6 -7 -44 92 -49 132 l-6 40 10 -35 c6 -19
19 -57 30 -84z m-3011 44 c-14 -11 -21 -20 -16 -20 4 0 -15 -25 -43 -56 -146
-160 -172 -386 -58 -500 74 -73 176 -79 312 -19 28 12 68 36 90 53 22 17 53
41 69 53 l29 23 -12 -22 c-15 -27 -134 -123 -186 -149 -22 -11 -46 -18 -54
-15 -8 2 -11 0 -8 -5 9 -14 -202 -9 -233 6 -49 22 -95 54 -110 75 -8 11 -31
40 -52 62 -27 29 -38 51 -39 75 -2 31 -2 32 -6 6 -6 -39 20 -109 63 -170 l36
-52 -41 44 c-60 64 -78 129 -63 228 14 91 47 163 102 226 52 59 159 139 176
133 8 -3 13 -1 11 4 -2 10 33 39 48 39 6 1 -1 -8 -15 -19z m-1060 -15 c0 -2
-10 -9 -22 -15 -22 -11 -22 -10 -4 4 21 17 26 19 26 11z m1397 -101 c-3 -3
-12 -4 -19 -1 -8 3 -5 6 6 6 11 1 17 -2 13 -5z m2712 -24 c11 -24 11 -24 -3
-6 -9 11 -16 24 -16 30 0 12 5 7 19 -24z m-2636 13 c-7 -2 -21 -2 -30 0 -10 3
-4 5 12 5 17 0 24 -2 18 -5z m2701 -75 c21 -38 35 -68 33 -68 -6 0 -77 125
-77 136 0 11 3 6 44 -68z m-5974 -271 l65 -59 -65 53 c-85 69 -171 152 -223
214 -23 28 3 5 58 -50 55 -55 130 -126 165 -158z m628 196 c6 -16 14 -44 18
-63 3 -19 21 -82 39 -140 47 -152 59 -238 51 -382 -3 -68 -10 -152 -15 -188
-6 -36 -13 -108 -16 -160 -6 -84 -5 -102 15 -153 30 -79 107 -191 193 -279 86
-88 288 -251 412 -332 49 -33 100 -71 113 -85 40 -42 10 6 -43 69 -25 30 -48
66 -52 80 -3 14 -14 41 -24 61 -10 20 -45 110 -77 200 -33 90 -74 200 -91 244
-36 92 -133 296 -138 292 -5 -6 123 -377 169 -487 24 -58 67 -148 96 -199 28
-51 45 -88 37 -81 -26 22 -113 173 -184 321 -125 262 -124 259 -145 429 l-14
105 -1 -130 c-1 -165 11 -236 58 -352 21 -51 37 -93 36 -93 -9 0 -55 94 -74
148 -32 95 -58 504 -31 487 7 -4 7 3 0 19 -15 41 1 30 55 -36 204 -249 267
-387 304 -665 35 -261 41 -279 122 -367 89 -97 306 -223 595 -345 66 -27 146
-64 179 -81 51 -26 55 -30 25 -24 -19 3 -55 17 -80 29 -25 13 -92 42 -150 64
-135 52 -362 163 -467 228 -45 28 -91 54 -102 58 -12 3 -21 10 -21 15 0 6 -60
50 -132 98 -285 191 -504 396 -555 521 -8 20 -21 50 -28 66 -55 131 -75 277
-82 605 -4 157 -9 274 -13 260 -4 -14 -13 -97 -20 -185 -15 -193 -4 -324 40
-477 16 -56 28 -104 25 -106 -6 -7 -63 182 -75 249 -12 75 -30 249 -37 367 -3
62 1 105 16 171 12 49 21 95 20 102 0 13 -12 -22 -55 -166 -39 -131 -26 -347
31 -503 29 -79 26 -95 -3 -20 -54 139 -76 285 -62 413 10 89 105 425 120 425
4 0 12 -12 18 -27z m5177 -184 c60 -190 68 -357 26 -520 -19 -75 -139 -329
-141 -299 0 8 -8 2 -16 -15 -8 -16 -12 -21 -8 -10 21 72 47 203 59 294 14 100
22 561 10 549 -7 -7 -22 -167 -34 -373 -15 -244 -32 -418 -42 -435 -5 -9 -6
29 -2 90 5 58 7 157 5 220 -6 254 -2 318 23 444 41 200 33 191 -29 -39 -35
-127 -50 -341 -36 -500 12 -129 12 -130 5 -123 -16 15 -35 241 -30 347 7 143
14 186 58 331 33 108 46 154 62 225 6 29 8 28 35 -37 16 -37 41 -104 55 -149z
m-5519 124 c-8 -15 -15 -25 -16 -21 0 12 23 58 27 54 3 -2 -2 -17 -11 -33z
m2474 -228 c13 -14 21 -25 18 -25 -2 0 -15 11 -28 25 -13 14 -21 25 -18 25 2
0 15 -11 28 -25z m3998 -2 c-8 -10 -48 -74 -88 -143 -40 -69 -93 -154 -118
-190 -50 -71 -179 -210 -195 -210 -6 0 0 12 14 28 l24 27 -27 -24 c-15 -13
-25 -28 -22 -32 13 -22 -230 -156 -371 -204 -124 -42 -174 -69 -258 -141 -43
-36 -80 -64 -83 -61 -3 2 28 32 68 66 40 34 91 79 112 99 22 21 36 29 33 20
-4 -10 -5 -18 -4 -18 12 0 209 76 248 96 56 28 210 136 275 193 23 20 53 44
68 54 14 10 52 52 84 95 63 83 89 125 48 77 -14 -16 -26 -34 -26 -38 0 -4 -6
-7 -12 -5 -7 1 -29 -13 -49 -32 -39 -37 -108 -95 -174 -147 -49 -38 -299 -199
-377 -243 -64 -35 -80 -35 -20 1 183 111 609 455 588 476 -3 3 -34 -19 -68
-49 -35 -30 -126 -101 -203 -158 -77 -57 -185 -140 -240 -184 -55 -43 -107
-84 -115 -89 -19 -12 72 77 210 206 60 56 97 97 87 97 -9 0 -17 -5 -17 -11 0
-5 -5 -7 -12 -3 -7 4 -8 3 -4 -4 4 -7 2 -12 -4 -12 -6 0 -72 -60 -147 -132
-154 -150 -154 -146 2 38 146 173 223 247 334 323 84 57 422 248 445 250 5 1
2 -7 -6 -16z m-6980 -83 c271 -140 374 -222 521 -415 41 -55 100 -128 129
-163 30 -35 52 -66 49 -68 -15 -15 -540 405 -733 587 -28 26 -54 45 -58 42 -3
-4 -6 -2 -6 4 0 5 -9 20 -20 33 -85 98 107 -225 204 -343 46 -57 116 -129 156
-160 31 -25 29 -24 -13 3 -55 36 -177 172 -241 269 -57 87 -138 232 -139 249
0 6 -3 12 -6 12 -4 0 -12 9 -19 20 -7 11 -9 20 -6 20 4 0 86 -41 182 -90z
m3624 -150 l33 -35 -37 34 c-33 30 -98 136 -98 157 0 5 16 -20 35 -56 19 -35
50 -80 67 -100z m-445 124 c-3 -3 -12 -4 -19 -1 -8 3 -5 6 6 6 11 1 17 -2 13
-5z m-114 -11 c-7 -2 -21 -2 -30 0 -10 3 -4 5 12 5 17 0 24 -2 18 -5z m65 0
c-10 -2 -26 -2 -35 0 -10 3 -2 5 17 5 19 0 27 -2 18 -5z m-3138 -66 c48 -65
53 -83 8 -30 -18 21 -35 40 -38 43 -20 20 -31 40 -22 40 6 0 29 -24 52 -53z
m4210 -97 c-8 -5 -19 -10 -25 -10 -5 0 -3 5 5 10 8 5 20 10 25 10 6 0 3 -5 -5
-10z m-3743 -316 c65 -43 141 -92 167 -109 179 -112 230 -149 253 -184 13 -20
7 -17 -26 12 -58 52 -147 108 -179 112 -31 4 -195 65 -190 71 2 2 40 -10 84
-26 43 -17 83 -29 88 -27 5 2 -21 20 -59 42 -94 52 -248 148 -320 200 -64 45
-175 156 -175 174 0 6 53 -33 118 -87 65 -54 173 -134 239 -178z m5142 -29 c2
-238 -95 -449 -316 -681 -68 -70 -61 -59 29 51 87 106 133 180 152 243 8 29
12 50 7 48 -4 -3 -6 11 -4 31 3 38 -5 40 -12 3 -2 -12 -13 -36 -24 -53 -10
-18 -45 -81 -76 -142 -32 -60 -64 -117 -72 -125 -14 -13 -14 -13 -5 5 42 83
107 231 131 299 32 90 65 229 59 247 -4 13 -83 -187 -143 -361 -39 -111 -60
-149 -49 -90 7 43 61 231 80 283 8 21 12 43 8 48 -3 5 -1 16 5 23 6 7 9 20 6
27 -5 13 9 67 30 124 6 14 5 17 -3 10 -18 -17 -99 -225 -126 -325 -26 -94 -26
-95 -22 -35 7 74 35 188 72 281 26 68 86 160 204 313 l55 72 6 -98 c4 -54 7
-143 8 -198z m-5409 130 c13 -14 21 -25 18 -25 -2 0 -15 11 -28 25 -13 14 -21
25 -18 25 2 0 15 -11 28 -25z m51 -42 c13 -16 12 -17 -3 -4 -10 7 -18 15 -18
17 0 8 8 3 21 -13z m114 -98 c19 -15 18 -15 -10 -1 -16 8 -39 22 -50 31 -19
15 -18 15 10 1 17 -8 39 -22 50 -31z m94 -51 c14 -12 -19 -1 -35 12 -18 14
-18 14 6 3 14 -6 27 -13 29 -15z m2608 -231 c-3 -10 -5 -2 -5 17 0 19 2 27 5
18 2 -10 2 -26 0 -35z m-2136 -10 c13 -16 12 -17 -3 -4 -10 7 -18 15 -18 17 0
8 8 3 21 -13z m4859 -76 c0 -2 -12 -14 -27 -28 l-28 -24 24 28 c23 25 31 32
31 24z m-5108 -51 c117 -25 249 -71 345 -120 55 -27 395 -248 390 -252 -7 -7
-520 179 -762 276 -127 51 -275 103 -281 98 -1 -2 43 -40 98 -86 55 -45 97
-82 93 -82 -4 0 -49 33 -99 73 -50 41 -109 86 -131 101 l-40 28 135 -6 c86 -3
178 -14 252 -30z m5828 30 c0 -2 -21 -17 -48 -34 -26 -16 -83 -59 -127 -96
-254 -213 -451 -286 -815 -301 -141 -6 -162 -9 -235 -37 -44 -17 -82 -34 -85
-39 -6 -9 -110 -51 -110 -44 0 3 18 12 40 21 22 9 40 19 40 23 0 12 77 51 152
77 75 25 103 30 78 14 -15 -10 69 -8 255 5 188 14 476 134 649 271 86 67 77
71 -13 5 -36 -27 -82 -56 -101 -66 l-35 -18 24 27 c14 14 22 26 20 26 -3 0
-56 -22 -120 -49 -63 -26 -157 -62 -209 -79 -111 -35 -428 -114 -442 -110 -5
2 57 23 139 47 335 97 574 187 658 248 19 13 18 14 -10 7 -16 -4 -87 -29 -156
-55 -70 -27 -205 -75 -300 -108 -96 -33 -205 -71 -243 -85 -38 -15 -71 -24
-73 -22 -3 3 11 15 30 28 19 13 70 50 113 83 44 32 103 74 132 91 110 67 327
144 461 163 58 9 331 14 331 7z m-5084 -179 c30 -31 54 -63 54 -69 0 -6 -18 9
-40 33 -22 24 -49 53 -59 64 -10 11 -26 34 -36 50 l-17 30 22 -25 c12 -14 46
-51 76 -83z m-551 -72 c81 -33 215 -76 423 -136 62 -17 111 -33 109 -35 -6 -7
-270 54 -352 80 -140 45 -271 100 -306 129 l-34 27 40 -16 c22 -8 76 -31 120
-49z m4382 -7 c-3 -8 -6 -5 -6 6 -1 11 2 17 5 13 3 -3 4 -12 1 -19z m-3742
-28 c10 -11 16 -20 13 -20 -3 0 -13 9 -23 20 -10 11 -16 20 -13 20 3 0 13 -9
23 -20z m-770 -30 c3 -6 -1 -7 -9 -4 -18 7 -21 14 -7 14 6 0 13 -4 16 -10z
m95 -20 c8 -5 11 -10 5 -10 -5 0 -17 5 -25 10 -8 5 -10 10 -5 10 6 0 17 -5 25
-10z m50 -20 c8 -5 11 -10 5 -10 -5 0 -17 5 -25 10 -8 5 -10 10 -5 10 6 0 17
-5 25 -10z m113 -37 c-7 -2 -19 -2 -25 0 -7 3 -2 5 12 5 14 0 19 -2 13 -5z
m212 -24 c82 -6 151 -12 154 -14 14 -15 -301 9 -325 24 -18 12 -18 12 1 6 11
-4 87 -11 170 -16z m377 -53 c49 -21 138 -76 125 -76 -4 0 -32 13 -64 29 -32
16 -88 39 -125 51 -38 12 -68 24 -68 27 0 11 81 -8 132 -31z m646 -183 c53
-39 61 -47 27 -29 -36 19 -83 55 -72 56 5 0 25 -12 45 -27z m-418 -59 c107
-18 216 -52 304 -95 32 -16 65 -29 74 -29 8 0 13 -2 10 -5 -3 -3 -122 2 -264
10 -168 10 -380 14 -602 13 -188 -2 -342 0 -342 3 0 3 69 27 153 52 135 41
196 55 327 71 61 7 242 -3 340 -20z m3009 22 c-2 -2 -15 -9 -29 -15 -24 -11
-24 -11 -6 3 16 13 49 24 35 12z m626 -25 c50 -11 126 -31 170 -44 44 -13 104
-30 134 -37 43 -10 50 -15 37 -22 -10 -5 -28 -7 -40 -4 -12 3 -31 0 -42 -8
-10 -7 -28 -15 -39 -18 -11 -3 -29 -9 -40 -13 -16 -5 -17 -5 -5 4 24 17 -1 13
-60 -11 -52 -20 -68 -21 -335 -19 -154 1 -344 8 -423 16 -78 7 -151 11 -162 8
-11 -3 -37 -2 -57 2 l-38 7 70 24 c39 14 89 33 111 44 66 30 213 69 320 85
126 18 283 12 399 -14z m-3665 -142 c352 -1 475 -10 286 -22 -235 -15 -757 1
-810 24 -14 6 17 8 89 4 61 -3 256 -5 435 -6z m459 -23 c-7 -5 -328 -75 -399
-86 -77 -12 -245 -12 -315 0 -36 7 -18 8 65 4 137 -5 281 12 495 60 133 30
168 35 154 22z m66 4 c3 -6 -1 -7 -9 -4 -18 7 -21 14 -7 14 6 0 13 -4 16 -10z
m115 -10 c36 -10 55 -19 43 -19 -12 -1 -42 5 -65 13 -24 8 -52 16 -63 19 l-20
5 20 0 c11 1 49 -7 85 -18z m2265 -6 c32 -9 71 -21 85 -29 84 -43 382 -53 590
-21 31 5 30 4 -9 -9 -75 -25 -224 -35 -356 -24 -116 9 -271 39 -260 50 3 3
-37 13 -87 22 -95 16 -142 14 -308 -12 -86 -14 -96 -12 -35 5 150 44 258 49
380 18z m-3358 -10 c-3 -3 -12 -4 -19 -1 -8 3 -5 6 6 6 11 1 17 -2 13 -5z
m4100 -30 c-3 -3 -12 -4 -19 -1 -8 3 -5 6 6 6 11 1 17 -2 13 -5z m-4040 -10
c-3 -3 -12 -4 -19 -1 -8 3 -5 6 6 6 11 1 17 -2 13 -5z m56 -11 c-7 -2 -21 -2
-30 0 -10 3 -4 5 12 5 17 0 24 -2 18 -5z"/>
<path d="M6084 6345 c94 -114 480 -494 491 -484 15 16 -406 449 -505 519 -33
23 -32 21 14 -35z"/>
<path d="M7008 5570 c2 -52 8 -99 13 -104 10 -11 2 110 -11 164 -4 21 -6 -2
-2 -60z"/>
<path d="M7372 5443 c-16 -144 -42 -537 -42 -617 0 -220 49 192 57 482 3 127
4 232 1 232 -3 0 -10 -44 -16 -97z"/>
<path d="M7570 3508 c-25 -23 -46 -65 -82 -157 -26 -69 -46 -126 -44 -128 1
-1 22 34 47 79 24 45 58 108 75 139 18 32 35 55 38 52 3 -4 6 6 6 20 0 15 -2
27 -4 27 -1 0 -18 -14 -36 -32z"/>
<path d="M7729 3439 c-35 -39 -81 -87 -103 -107 -21 -20 -76 -82 -122 -138
-45 -55 -90 -106 -99 -114 -9 -7 -25 -27 -37 -44 -19 -28 -17 -27 23 10 24 22
80 70 124 106 132 110 258 249 305 338 l13 25 -22 -19 c-18 -17 -21 -17 -15
-3 11 29 0 20 -67 -54z"/>
<path d="M7233 3385 c0 -22 2 -30 4 -17 2 12 2 30 0 40 -3 9 -5 -1 -4 -23z"/>
<path d="M7243 3270 c0 -30 2 -43 4 -27 2 15 2 39 0 55 -2 15 -4 2 -4 -28z"/>
<path d="M7137 2685 c-20 -41 -35 -75 -32 -75 7 0 77 141 73 146 -2 2 -21 -30
-41 -71z"/>
<path d="M2665 2030 c3 -5 8 -10 11 -10 2 0 4 5 4 10 0 6 -5 10 -11 10 -5 0
-7 -4 -4 -10z"/>
<path d="M5703 1743 c-21 -27 -61 -79 -89 -116 -27 -38 -65 -90 -84 -116 -90
-125 -174 -231 -178 -227 -2 3 11 26 29 53 103 149 167 248 164 252 -3 2 8 20
24 40 38 48 63 99 53 105 -9 5 -73 -64 -126 -138 -17 -23 -62 -104 -100 -181
-87 -172 -83 -163 -63 -146 13 10 17 10 17 1 0 -6 -9 -14 -19 -17 -18 -5 -36
-31 -28 -40 4 -3 147 142 214 217 69 78 129 162 182 255 68 120 70 136 4 58z"/>
<path d="M3160 1443 c0 -6 8 -17 18 -24 16 -13 16 -13 2 6 -8 11 -16 22 -17
24 -2 2 -3 0 -3 -6z"/>
<path d="M3200 1381 c5 -11 15 -23 21 -27 6 -3 3 5 -6 20 -20 30 -30 35 -15 7z"/>
<path d="M5220 1149 c-17 -13 -18 -17 -5 -10 33 17 51 31 40 31 -5 0 -21 -10
-35 -21z"/>
<path d="M2370 6204 c-218 -200 -410 -401 -410 -429 0 -9 192 168 345 320 118
117 195 205 178 205 -4 0 -55 -44 -113 -96z"/>
<path d="M1875 5684 c-9 -15 -12 -23 -6 -20 11 7 35 46 28 46 -3 0 -12 -12
-22 -26z"/>
<path d="M1755 6220 c-9 -16 -13 -30 -11 -30 3 0 12 14 21 30 9 17 13 30 11
30 -3 0 -12 -13 -21 -30z"/>
<path d="M4682 5766 c-32 -18 -38 -26 -20 -26 9 0 26 9 39 20 27 22 16 25 -19
6z"/>
<path d="M3240 5635 c-14 -8 -20 -14 -14 -15 5 0 19 7 30 15 24 18 16 19 -16
0z"/>
<path d="M2492 4665 c0 -16 2 -22 5 -12 2 9 2 23 0 30 -3 6 -5 -1 -5 -18z"/>
<path d="M3605 4461 c-3 -5 -2 -12 3 -15 5 -3 9 1 9 9 0 17 -3 19 -12 6z"/>
<path d="M3566 4383 c-6 -14 -5 -15 5 -6 7 7 10 15 7 18 -3 3 -9 -2 -12 -12z"/>
<path d="M3321 3951 c-22 -31 -27 -51 -12 -51 15 0 33 29 25 41 -4 8 -3 9 4 5
8 -5 12 0 12 13 0 28 -5 26 -29 -8z"/>
<path d="M4031 3684 c0 -11 3 -14 6 -6 3 7 2 16 -1 19 -3 4 -6 -2 -5 -13z"/>
<path d="M1277 5101 c-4 -18 -6 -93 -6 -165 l1 -131 15 115 c10 77 12 131 6
165 l-9 50 -7 -34z"/>
<path d="M1975 5496 c-65 -35 -180 -114 -201 -137 -15 -17 -7 -14 36 11 30 18
73 45 94 61 22 16 46 29 54 29 7 0 10 5 7 10 -3 6 0 10 7 10 17 0 55 26 48 33
-3 3 -23 -5 -45 -17z"/>
<path d="M1402 4915 c-12 -25 -20 -45 -17 -45 7 0 47 81 43 86 -3 2 -14 -17
-26 -41z"/>
<path d="M866 4605 c17 -128 102 -391 174 -536 31 -63 60 -126 63 -139 3 -13
9 -22 12 -19 3 4 -13 60 -35 125 -23 65 -72 209 -109 319 -38 110 -78 220 -89
245 l-22 45 6 -40z"/>
<path d="M1419 4333 c-13 -16 -12 -17 4 -4 9 7 17 15 17 17 0 8 -8 3 -21 -13z"/>
<path d="M1035 4310 c3 -5 8 -10 11 -10 2 0 4 5 4 10 0 6 -5 10 -11 10 -5 0
-7 -4 -4 -10z"/>
<path d="M1071 4224 c1 -21 5 -50 9 -64 5 -16 6 -2 3 35 -7 69 -13 86 -12 29z"/>
<path d="M1092 4100 c0 -14 2 -19 5 -12 2 6 2 18 0 25 -3 6 -5 1 -5 -13z"/>
<path d="M6676 4907 c3 -10 9 -15 12 -12 3 3 0 11 -7 18 -10 9 -11 8 -5 -6z"/>
<path d="M6731 4813 c23 -38 43 -69 44 -71 1 -2 6 5 9 15 4 9 4 14 0 10 -4 -3
-23 20 -42 53 -20 33 -39 60 -44 60 -4 0 11 -30 33 -67z"/>
<path d="M6867 4718 c151 -193 202 -256 256 -317 32 -36 83 -101 113 -143 103
-146 89 -94 -19 67 -81 121 -161 219 -282 345 -124 130 -143 143 -68 48z"/>
<path d="M7216 4377 c3 -10 9 -15 12 -12 3 3 0 11 -7 18 -10 9 -11 8 -5 -6z"/>
<path d="M7561 4423 c0 -6 -4 -20 -7 -30 -5 -14 -4 -15 5 -7 7 7 11 20 8 30
-3 11 -5 14 -6 7z"/>
<path d="M7522 4318 c-29 -74 -42 -140 -47 -238 -7 -113 8 -94 35 45 12 61 27
140 34 178 8 37 10 67 6 67 -4 0 -17 -24 -28 -52z"/>
<path d="M7624 4073 c-68 -101 -76 -113 -71 -113 6 0 89 115 106 148 21 39 5
23 -35 -35z"/>
<path d="M5805 4583 c-96 -13 -255 -75 -355 -139 -102 -64 -239 -170 -262
-201 l-20 -28 26 28 c14 15 28 27 31 27 3 0 38 24 78 54 121 91 243 163 331
195 78 28 251 60 262 48 3 -3 -23 -8 -58 -12 -222 -24 -434 -141 -653 -360
-129 -128 -209 -228 -299 -374 -74 -119 -187 -345 -175 -349 5 -2 6 -9 2 -14
-10 -17 227 -2 327 21 253 58 552 213 760 395 158 138 253 271 289 404 26 96
26 154 2 208 -24 52 -69 80 -151 93 -65 11 -80 11 -135 4z m148 -30 c-7 -2
-21 -2 -30 0 -10 3 -4 5 12 5 17 0 24 -2 18 -5z"/>
<path d="M5125 4183 l-18 -28 27 24 c28 26 31 31 17 31 -5 0 -17 -12 -26 -27z"/>
<path d="M4882 3893 c1 -4 -4 -19 -11 -32 l-13 -24 -14 24 c-7 13 -13 20 -14
16 0 -5 5 -17 10 -28 8 -13 7 -25 0 -40 -11 -20 -12 -20 -27 -2 -8 10 -12 12
-8 6 3 -7 1 -13 -4 -13 -6 0 -11 -5 -11 -12 0 -6 3 -8 7 -5 3 4 11 3 17 -2 8
-7 23 10 48 49 21 33 33 62 27 66 -5 3 -8 2 -7 -3z"/>
<path d="M4773 3755 c-7 -8 -13 -17 -13 -21 0 -3 -9 -19 -20 -34 -17 -24 -18
-29 -4 -34 8 -3 13 -2 9 3 -8 14 6 42 18 34 6 -3 7 -1 3 5 -4 7 -2 12 3 12 6
0 11 -5 11 -12 0 -6 3 -8 6 -5 4 4 1 13 -6 22 -12 14 -10 17 17 19 7 1 13 6
13 11 1 16 -24 16 -37 0z"/>
<path d="M5644 3714 c-18 -14 -18 -15 4 -4 12 6 22 13 22 15 0 8 -5 6 -26 -11z"/>
<path d="M5491 2874 c0 -11 3 -14 6 -6 3 7 2 16 -1 19 -3 4 -6 -2 -5 -13z"/>
<path d="M4707 2709 c7 -7 15 -10 18 -7 3 3 -2 9 -12 12 -14 6 -15 5 -6 -5z"/>
<path d="M4432 3901 c4 -14 -8 -31 -74 -104 -21 -23 -35 -43 -33 -46 8 -7 64
49 97 97 24 34 28 46 18 55 -10 9 -12 9 -8 -2z"/>
<path d="M816 3656 c58 -123 129 -246 195 -340 70 -100 179 -239 179 -229 0
21 -370 612 -412 658 -5 6 12 -35 38 -89z"/>
<path d="M1782 2610 c0 -19 2 -27 5 -17 2 9 2 25 0 35 -3 9 -5 1 -5 -18z"/>
<path d="M1781 2508 c0 -35 4 -81 8 -103 l7 -40 8 55 c4 30 10 67 12 83 3 21
0 27 -13 28 -10 0 -13 3 -6 5 13 6 6 34 -8 34 -5 0 -9 -28 -8 -62z"/>
<path d="M6873 2533 c-7 -2 -13 -14 -13 -26 0 -12 -11 -65 -24 -117 -14 -52
-23 -96 -22 -98 3 -2 34 74 68 168 13 36 16 56 9 58 -6 2 -9 8 -5 13 6 10 5
10 -13 2z"/>
<path d="M1445 2410 c10 -11 20 -20 23 -20 3 0 -3 9 -13 20 -10 11 -20 20 -23
20 -3 0 3 -9 13 -20z"/>
<path d="M2046 1692 c12 -11 64 -33 64 -27 0 5 -56 35 -67 35 -4 0 -3 -4 3 -8z"/>
<path d="M2885 1170 c3 -5 16 -10 28 -9 21 0 21 1 2 9 -28 12 -37 12 -30 0z"/>
<path d="M5745 1140 c-110 -3 -211 -11 -224 -16 -31 -14 839 -11 889 3 82 22
-197 27 -665 13z"/>
</g>
</svg>
