<?xml version="1.0" encoding="UTF-8"?>
<svg id="Calque_1" data-name="Calque 1" xmlns="http://www.w3.org/2000/svg" version="1.1" viewBox="0 0 12 12">
  <defs>
    <style>
      .cls-1 {
        fill: #1d2327;
        stroke-width: 0px;
      }
    </style>
  </defs>
  <path class="cls-1" d="M9.6.1c0-.1-.1-.1-.2-.1h-4c-1,.1-1.6.9-1.6,1.8v5.4c0,1.1.8,1.9,1.9,1.9h3.6c1,0,1.9-.9,1.9-1.9V1.9c0-.9-.7-1.6-1.6-1.8ZM9.9,2v5.3c0,.4-.3.7-.7.7h-3.5c-.4,0-.7-.3-.7-.8V2c0-.4.3-.7.7-.7h3.4c.5,0,.8.2.8.7Z"/>
  <path class="cls-1" d="M7.5,10.8H2.7c-.3-.1-.6-.3-.6-.7V3.7c0-.4-.2-.7-.6-.7s-.6.3-.6.6v6.5c0,.9.5,1.6,1.4,1.8h5.2c.3,0,.6-.3.6-.6s-.3-.5-.6-.5Z"/>
</svg>