<?xml version="1.0" encoding="UTF-8"?>
<svg id="Calque_1" data-name="Calque 1" xmlns="http://www.w3.org/2000/svg" version="1.1" viewBox="0 0 100 90">
  <defs>
    <style>
      .cls-1 {
        fill: #ffc400;
      }

      .cls-1, .cls-2 {
        stroke-width: 0px;
      }

      .cls-2 {
        fill: #212121;
      }
    </style>
  </defs>
  <path id="Tracé_15786" data-name="Tracé 15786" class="cls-1" d="M98.5,74.5L58.5,5c-1.8-3-5-4.9-8.5-5-3.5.1-6.7,2-8.5,5L1.5,74.5c-2,3.2-2,7.3,0,10.5,1.7,3.1,5,5,8.5,5h80c3.5,0,6.8-1.9,8.5-5,2-3.2,2-7.3,0-10.5Z"/>
  <path id="Tracé_15787" data-name="Tracé 15787" class="cls-2" d="M45.5,54c0,2.5,2,3.5,4.5,3.5s4.5-1.5,4.5-3.5c0-3.8.5-24.5.5-24.5.2-2.6-1.8-4.8-4.4-5-.2,0-.4,0-.6,0-2.8-.2-5.3,1.9-5.5,4.8,0,0,0,.2,0,.2,0,4.2,1.1,20.5,1,24.5Z"/>
  <path id="Tracé_15788" data-name="Tracé 15788" class="cls-2" d="M50,65.5c-3,0-5.5,2.5-5.5,5.5s2.5,5.5,5.5,5.5,5.5-2.5,5.5-5.5c0-3-2.5-5.5-5.5-5.5Z"/>
</svg>