<?xml version="1.0" encoding="UTF-8"?>
<svg id="Calque_1" xmlns="http://www.w3.org/2000/svg" width="100" height="100" version="1.1" viewBox="0 0 100 100">
  <!-- Generator: Adobe Illustrator 29.5.1, SVG Export Plug-In . SVG Version: 2.1.0 Build 141)  -->
  <defs>
    <style>
      .st0 {
        fill: #fff;
      }
    </style>
  </defs>
  <path class="st0" d="M64.6,54.13c-.1-.91-1.17-1.59-2.08-1.59-2.97,0-5.6-1.74-6.71-4.44-1.13-2.76-.4-5.98,1.81-8.01.69-.64.78-1.7.19-2.44-1.52-1.93-3.25-3.67-5.13-5.18-.74-.6-1.82-.51-2.46.2-1.93,2.14-5.4,2.94-8.08,1.81-2.79-1.17-4.55-4-4.38-7.03.06-.95-.64-1.78-1.59-1.89-2.42-.28-4.86-.29-7.29-.02-.94.1-1.63.91-1.61,1.85.1,3.01-1.68,5.78-4.44,6.91-2.65,1.08-6.09.29-8.02-1.83-.64-.7-1.7-.78-2.44-.21-1.94,1.52-3.71,3.27-5.24,5.18-.6.75-.51,1.82.19,2.46,2.25,2.04,2.98,5.29,1.81,8.09-1.12,2.66-3.88,4.38-7.05,4.38-1.02-.03-1.76.65-1.87,1.59-.29,2.44-.29,4.92-.01,7.37.1.91,1.2,1.59,2.13,1.59,2.82-.07,5.53,1.67,6.67,4.44,1.13,2.76.4,5.98-1.81,8.01-.69.64-.78,1.7-.19,2.44,1.5,1.92,3.23,3.66,5.13,5.18.74.6,1.82.51,2.46-.19,1.94-2.14,5.4-2.94,8.08-1.81,2.8,1.17,4.56,4,4.39,7.03-.06.95.64,1.78,1.59,1.89,1.24.14,2.48.21,3.73.21s2.37-.06,3.56-.19c.94-.1,1.63-.91,1.6-1.85-.11-3.01,1.68-5.79,4.44-6.91,2.66-1.09,6.09-.29,8.02,1.82.64.7,1.7.78,2.44.21,1.94-1.52,3.7-3.26,5.24-5.18.6-.75.52-1.82-.19-2.46-2.25-2.04-2.99-5.29-1.81-8.09,1.1-2.62,3.76-4.39,6.63-4.39h.4c.93.09,1.78-.63,1.89-1.57.29-2.44.29-4.92.01-7.37h0ZM32.4,73.38c-8.64,0-15.65-7-15.65-15.65s7-15.65,15.65-15.65,15.65,7,15.65,15.65-7,15.65-15.65,15.65Z"/>
  <path class="st0" d="M93.52,14.6c-.41-.36-1.14-.23-1.53.13-1.29,1.17-3.12,1.46-4.67.73-1.58-.75-2.54-2.44-2.38-4.2.05-.55-.34-1.05-.88-1.14-1.42-.24-2.86-.31-4.28-.22-.56.03-.99.5-.99,1.06,0,1.69-1.19,3.41-2.79,3.99-1.68.6-3.56.06-4.69-1.32-.35-.44-.98-.52-1.44-.19-1.16.84-2.22,1.8-3.17,2.88-.37.42-.35,1.04.04,1.44,1.24,1.26,1.56,3.17.81,4.76-.72,1.52-2.53,2.54-4.21,2.38-.55-.05-1.05.33-1.14.88-.24,1.43-.32,2.89-.22,4.33.04.56.5.99,1.06.99,1.79,0,3.39,1.12,3.99,2.79.57,1.6.05,3.44-1.33,4.69-.46.39-.5.98-.18,1.43.84,1.17,1.82,2.25,2.91,3.2.41.36,1.15.22,1.55-.15,1.2-1.15,3.06-1.46,4.65-.71,1.59.75,2.54,2.44,2.38,4.2-.05.55.34,1.05.88,1.14,1.41.24,2.85.31,4.28.22.56-.03.99-.5.99-1.06,0-1.7,1.18-3.42,2.79-3.99,1.68-.6,3.56-.07,4.69,1.32.35.44.98.52,1.44.19.59-.43,1.16-.89,1.71-1.38s1-.97,1.47-1.49c.37-.42.35-1.04-.04-1.44-1.24-1.26-1.56-3.18-.81-4.76.73-1.53,2.53-2.54,4.2-2.38.56.05,1.05-.33,1.14-.88.24-1.43.32-2.88.23-4.32-.04-.56-.5-1-1.06-.99-1.79,0-3.39-1.11-3.99-2.79-.56-1.58-.1-3.4,1.14-4.53l.18-.15c.44-.34.52-.98.19-1.44-.84-1.17-1.82-2.25-2.91-3.2h0ZM87.15,35.7c-3.75,3.42-9.57,3.15-12.99-.6s-3.15-9.57.6-12.99,9.57-3.15,12.99.6,3.15,9.57-.6,12.99Z"/>
</svg>