<?xml version="1.0" encoding="utf-8"?>
<!-- Generator: Adobe Illustrator 25.2.0, SVG Export Plug-In . SVG Version: 6.00 Build 0)  -->
<svg version="1.1" id="Calque_1" xmlns="http://www.w3.org/2000/svg" xmlns:xlink="http://www.w3.org/1999/xlink" x="0px" y="0px"
	 viewBox="0 0 30 30" style="enable-background:new 0 0 30 30;" xml:space="preserve">
<style type="text/css">
	.st0{fill:#FFFFFF;}
	.st1{fill:none;stroke:#1C469D;stroke-width:2;}
	.st2{fill:#1C469D;}
</style>
<circle class="st0" cx="14.4" cy="15" r="15"/>
<circle class="st1" cx="14.4" cy="15" r="14"/>
<path id="fleche_suivant" class="st2" d="M17.4,8.3c-0.3,0-0.5,0.1-0.7,0.3c-0.2,0.2-0.3,0.5-0.3,0.7c0,0.3,0.1,0.5,0.3,0.7l4.8,5
	l-4.8,5c-0.4,0.4-0.4,1,0,1.4c0,0,0,0,0,0c0.2,0.2,0.5,0.4,0.7,0.3c0.2,0,0.4-0.1,0.6-0.3l5.5-5.7c0.4-0.4,0.4-1,0-1.5L18,8.6
	C17.8,8.4,17.6,8.4,17.4,8.3z"/>
<path id="fleche_suivant_1_" class="st2" d="M11.4,21.7c0.3,0,0.5-0.1,0.7-0.3c0.2-0.2,0.3-0.5,0.3-0.7c0-0.3-0.1-0.5-0.3-0.7
	l-4.8-5l4.8-5c0.4-0.4,0.4-1,0-1.4c0,0,0,0,0,0c-0.2-0.2-0.5-0.4-0.7-0.3c-0.2,0-0.4,0.1-0.6,0.3l-5.5,5.7c-0.4,0.4-0.4,1,0,1.5
	l5.5,5.7C11,21.6,11.2,21.6,11.4,21.7z"/>
</svg>
