<?xml version="1.0" encoding="utf-8"?>
<!-- Generator: Adobe Illustrator 25.2.0, SVG Export Plug-In . SVG Version: 6.00 Build 0)  -->
<svg version="1.1" id="Calque_1" xmlns="http://www.w3.org/2000/svg" xmlns:xlink="http://www.w3.org/1999/xlink" x="0px" y="0px"
	 viewBox="0 0 150 131" style="enable-background:new 0 0 150 131;" xml:space="preserve">
<style type="text/css">
	.st0{fill:#C7C7C9;}

	.first_gear_loading, .second_gear_loading{
		animation: rotate 2s infinite linear;
		transform-box: fill-box; /* IMPORTANT POUR QUE LES ROUAGES TOURNENT SUR EUX-MÊMES */
  		transform-origin: center;
  	}

	.first_gear_loading{
		animation: rotate-left 2s infinite linear;
	}
	@keyframes rotate { from { transform: rotate(0deg); } to { transform: rotate(360deg); } }
	@keyframes rotate-left { from { transform: rotate(360deg); } to { transform: rotate(0deg); } }
</style>
<path class="st0 first_gear_loading" d="M104.7,115.1c-0.7-1.3-1.3-2.7-2.1-4c-0.1-0.2-0.4-0.4-0.6-0.5c-2.1-0.4-4.3-0.9-6.4-1.3
	c-0.9-0.2-1.5-0.9-1.4-1.8c0.2-3.5,0.3-7,0.5-10.5c0-0.8,0.7-1.5,1.5-1.6c2.2-0.2,4.4-0.4,6.6-0.6c0.3,0,0.6-0.2,0.8-0.5
	c0.8-1.3,1.6-2.6,2.4-3.9c0.1-0.2,0.2-0.5,0.1-0.7c-0.7-2-1.4-4.1-2.1-6.1c-0.3-0.9,0.1-1.9,0.9-2.3c3.1-1.6,6.1-3.1,9.2-4.7
	c0.8-0.4,1.8-0.2,2.3,0.6c1.3,1.8,2.5,3.6,3.8,5.4c0.1,0.2,0.4,0.3,0.6,0.3c1.6,0.1,3.1,0.2,4.7,0.3c0.2,0,0.5-0.2,0.7-0.3
	c1.5-1.7,2.9-3.4,4.4-5c0.5-0.6,1.4-0.7,2.1-0.3c3,1.9,6,3.9,9,5.8c0.8,0.5,0.9,1.1,0.5,2c-0.9,2-1.8,4-2.8,5.9
	c-0.3,0.6-0.1,0.9,0.3,1.6c0.6,1,1.1,2,1.6,3.1c0.2,0.6,0.5,0.8,1.1,0.9c2.1,0.4,4.2,0.8,6.3,1.2c0.8,0.2,1.4,0.9,1.4,1.7
	c-0.2,3.5-0.3,7.1-0.5,10.6c0,0.8-0.7,1.5-1.5,1.5c-2.2,0.2-4.4,0.4-6.6,0.6c-0.4,0-0.6,0.2-0.8,0.5c-0.8,1.3-1.6,2.5-2.4,3.8
	c-0.1,0.2-0.2,0.5-0.1,0.7c0.7,2,1.4,4,2.1,6.1c0.6,1.7,0.1,2.1-2.4,3.1c-2.2,0.9-4.4,2-6.4,3.3c-2,1.3-2.6,1.4-3.6,0.1
	c-1.2-1.8-2.5-3.5-3.7-5.2c-0.1-0.2-0.4-0.3-0.6-0.4c-1.6-0.1-3.1-0.2-4.7-0.2c-0.3,0-0.5,0.1-0.7,0.3c-1.5,1.7-2.9,3.3-4.4,5
	c-1,1.1-1.7,0.9-3.4-0.6c-1.8-1.6-3.9-2.9-6.1-3.9c-2.3-1-2.9-1.6-2.2-3c0.9-2,1.8-3.9,2.7-5.9c0.1-0.3,0.1-0.6,0.1-1
	C104.8,115.1,104.7,115.1,104.7,115.1z M117.7,95c-4.7,2.4-6.7,8.3-4.3,13c2.7,5.3,9.8,7.1,14.7,3.2c3.1-2.4,4.4-6.6,3.3-10.3
	C129.6,95,122.9,92.4,117.7,95z"/>
<path class="st0 second_gear_loading" d="M93.3,21.3c-0.2,0.6-0.3,1-0.5,1.4c-2.1,3.5-4.3,7.1-6.5,10.6c-0.3,0.5-0.3,0.8,0,1.3c0.9,2.2,1.9,4.5,2.7,6.8
	c0.2,0.5,0.4,0.8,1,0.9c3.8,0.9,7.7,1.8,11.5,2.7c1.6,0.4,2,1,2,2.6c0,3.8,0,7.7,0,11.5c0,1.5-0.5,2.2-2,2.5
	c-3.9,0.9-7.8,1.9-11.7,2.8c-0.5,0.1-0.7,0.4-0.8,0.8c-0.9,2.3-1.8,4.7-2.8,7c-0.2,0.4-0.2,0.7,0.1,1.1c2.1,3.5,4.3,6.9,6.4,10.4
	c0.8,1.4,0.8,2.2-0.4,3.4c-2.6,2.7-5.2,5.4-7.8,8.1c-1.1,1.1-1.9,1.2-3.1,0.3c-3.4-2.2-6.7-4.3-10.1-6.5c-0.4-0.3-0.8-0.3-1.3-0.1
	c-2.2,1-4.5,1.9-6.7,2.9c-0.4,0.2-0.6,0.3-0.7,0.8c-0.9,4-1.7,7.9-2.6,11.9c-0.4,1.8-0.9,2.3-2.8,2.3c-3.6,0-7.2,0-10.8,0
	c-1.7,0-2.2-0.5-2.6-2.1c-0.9-4-1.8-7.9-2.6-11.9c-0.1-0.5-0.3-0.7-0.8-0.9c-2.3-0.9-4.5-1.9-6.7-2.9c-0.4-0.2-0.7-0.2-1.1,0.1
	c-3.3,2.1-6.6,4.3-9.9,6.4c-1.6,1.1-2.3,1-3.7-0.4c-2.5-2.6-5.1-5.2-7.6-7.9c-1.1-1.1-1.2-2-0.4-3.3c2.1-3.5,4.2-7,6.4-10.4
	c0.3-0.4,0.2-0.7,0.1-1.1c-1-2.3-1.9-4.6-2.8-6.9c-0.2-0.5-0.4-0.7-0.9-0.8c-3.9-0.9-7.8-1.8-11.7-2.8c-1.4-0.3-1.9-1-1.9-2.4
	c0-3.9,0-7.9,0-11.8c0-1.3,0.6-2,1.9-2.3c3.8-0.9,7.7-1.8,11.5-2.7c0.6-0.1,0.9-0.4,1.2-1.1c0.8-2.3,1.8-4.5,2.7-6.7
	c0.2-0.5,0.2-0.8-0.1-1.2c-2.1-3.5-4.3-6.9-6.4-10.4c-0.8-1.3-0.7-2.1,0.4-3.2c2.6-2.7,5.2-5.3,7.8-8c1.2-1.2,1.9-1.3,3.3-0.4
	c3.4,2.2,6.7,4.3,10.1,6.5c0.4,0.3,0.7,0.3,1.1,0.1c2.2-1,4.5-2,6.8-2.9c0.4-0.2,0.6-0.4,0.7-0.8c0.9-4,1.7-7.9,2.6-11.9
	C44,0.4,44.6,0,46.4,0c3.6,0,7.3,0,10.9,0c1.5,0,2.1,0.5,2.4,2c0.9,4,1.8,8,2.7,12.1c0.1,0.5,0.3,0.7,0.8,0.9
	c2.3,0.9,4.5,1.9,6.7,2.9c0.4,0.2,0.7,0.2,1.1-0.1c3.4-2.2,6.8-4.4,10.2-6.6c1.2-0.8,2.1-0.7,3.1,0.3c2.7,2.8,5.4,5.5,8,8.3
	C92.8,20.2,93,20.8,93.3,21.3z M52,75.9c2.4,0,4.9-0.4,7.3-1.4c12.5-4.7,18.2-19.8,11.9-31.9c-5.7-11.1-19-15.3-29.8-9.5
	c-9.1,5-13.7,15.9-11,26C33.2,69.2,41.8,75.9,52,75.9z"/>
</svg>
