<?xml version="1.0" encoding="utf-8"?>
<!-- Generator: Adobe Illustrator 24.0.0, SVG Export Plug-In . SVG Version: 6.00 Build 0)  -->
<svg version="1.1" id="Layer_1" xmlns="http://www.w3.org/2000/svg" xmlns:xlink="http://www.w3.org/1999/xlink" x="0px" y="0px"
	 viewBox="0 0 9.4 5.8" style="enable-background:new 0 0 9.4 5.8;" xml:space="preserve">
<style type="text/css">
	.st0{fill:#BEBEBE;}
</style>
<path class="st0" d="M0.2,1.1l4,4.5c0.1,0.1,0.3,0.2,0.5,0.2c0.2,0,0.4-0.1,0.5-0.2l4-4.5C9.3,1,9.4,0.8,9.4,0.7
	c0-0.2-0.1-0.4-0.2-0.5c-0.3-0.3-0.7-0.3-1,0l-3.5,4l-3.5-4C1.1,0.1,0.9,0,0.7,0S0.4,0.1,0.2,0.2C0.1,0.3,0,0.5,0,0.7
	C0,0.8,0.1,1,0.2,1.1z"/>
</svg>
