<?xml version="1.0" encoding="utf-8"?>
<!-- Generator: Adobe Illustrator 25.2.0, SVG Export Plug-In . SVG Version: 6.00 Build 0)  -->
<svg version="1.1" id="Calque_1" xmlns="http://www.w3.org/2000/svg" xmlns:xlink="http://www.w3.org/1999/xlink" x="0px" y="0px"
	 viewBox="0 0 30 30" style="enable-background:new 0 0 30 30;" xml:space="preserve">
<style type="text/css">
	.st0{fill:#F38020;}
	.st1{fill:#FAAE40;}
</style>
<path class="st0" d="M16.2,8.2c-3.1,0-5.8,2-6.7,4.8c-0.6-0.5-1.4-0.7-2.2-0.6c-1.5,0.1-2.7,1.4-2.9,2.9c0,0.4,0,0.8,0.1,1.1
	C2,16.5,0,18.5,0,20.9c0,0.2,0,0.4,0,0.7c0,0.1,0.1,0.2,0.2,0.2h20c0.1,0,0.2-0.1,0.3-0.2l0.1-0.5c0.2-0.6,0.1-1.2-0.2-1.6
	c-0.3-0.4-0.8-0.6-1.3-0.7L8.3,18.6c-0.1,0-0.1,0-0.2-0.1c0-0.1,0-0.1,0-0.2c0-0.1,0.1-0.2,0.3-0.2L19.3,18c1.3-0.1,2.7-1.1,3.2-2.4
	l0.6-1.6c0-0.1,0-0.1,0-0.2C22.4,10.6,19.6,8.2,16.2,8.2"/>
<path class="st1" d="M24.1,14.1c-0.1,0-0.2,0-0.3,0c-0.1,0-0.1,0.1-0.2,0.1l-0.4,1.5c-0.2,0.6-0.1,1.2,0.2,1.6
	c0.3,0.4,0.8,0.6,1.3,0.7l2.3,0.1c0.1,0,0.1,0,0.2,0.1s0,0.1,0,0.2c0,0.1-0.1,0.2-0.3,0.2l-2.4,0.1c-1.3,0.1-2.7,1.1-3.2,2.4
	l-0.2,0.4c0,0.1,0,0.2,0.1,0.2h8.2c0.1,0,0.2-0.1,0.2-0.2c0.1-0.5,0.2-1,0.2-1.6C30,16.7,27.4,14.1,24.1,14.1"/>
</svg>
