<?xml version="1.0" encoding="UTF-8"?>
<svg id="Calque_1" xmlns="http://www.w3.org/2000/svg" width="20" height="20" version="1.1" viewBox="0 0 20 20">
  <!-- Generator: Adobe Illustrator 29.5.1, SVG Export Plug-In . SVG Version: 2.1.0 Build 141)  -->
  <defs>
    <style>
      .st0 {
        fill: #1d2327;
      }
    </style>
  </defs>
  <path class="st0" d="M13.68,3.68c-1.38,0-2.64.44-3.68,1.19-1.04-.75-2.31-1.19-3.68-1.19C2.83,3.68,0,6.51,0,10s2.83,6.32,6.32,6.32c1.38,0,2.64-.44,3.68-1.19,1.04.75,2.31,1.19,3.68,1.19,3.49,0,6.32-2.83,6.32-6.32s-2.83-6.32-6.32-6.32ZM6.32,14.47c-2.47,0-4.47-2.01-4.47-4.47s2.01-4.47,4.47-4.47,4.47,2.01,4.47,4.47-2.01,4.47-4.47,4.47ZM13.68,14.47c-.85,0-1.64-.25-2.32-.67.8-1.06,1.28-2.37,1.28-3.8s-.48-2.74-1.28-3.8c.68-.42,1.47-.67,2.32-.67,2.47,0,4.47,2.01,4.47,4.47s-2.01,4.47-4.47,4.47Z"/>
</svg>