<?xml version="1.0" encoding="utf-8"?>
<!-- Generator: Adobe Illustrator 25.2.0, SVG Export Plug-In . SVG Version: 6.00 Build 0)  -->
<svg version="1.1" id="Calque_1" xmlns="http://www.w3.org/2000/svg" xmlns:xlink="http://www.w3.org/1999/xlink" x="0px" y="0px"
	 viewBox="0 0 60 60" style="enable-background:new 0 0 60 60;" xml:space="preserve">
<style type="text/css">
	.st0{fill:#B4BFCC;}
	.st1{fill:#FFFFFF;}
	.st2{fill:#016BBF;}
	.st3{fill:#0196DB;}
</style>
<rect y="4" class="st0" width="60" height="52"/>
<rect x="3" y="13.4" class="st1" width="54" height="39.6"/>
<ellipse class="st1" cx="4.6" cy="8.6" rx="1.6" ry="1.6"/>
<ellipse class="st1" cx="9.7" cy="8.6" rx="1.6" ry="1.6"/>
<ellipse class="st1" cx="14.8" cy="8.6" rx="1.6" ry="1.6"/>
<g>
	<path class="st2" d="M17.5,46.7c-0.7-8.9-1.7-20.6-2.2-29.4c9.6-0.2,19.4,0,29-0.1c0.5,0,0.5,0,0.5,0.5c-0.7,8.8-1.5,20.2-2.3,29
		L30,50.1L17.5,46.7z M30,34.6c0,1.9,0,3.8,0,5.7c-1.3-0.4-2.6-0.7-3.9-1.1c-0.2-0.1-0.2-0.2-0.2-0.3c0-0.8-0.1-1.5-0.1-2.3
		c0-0.3-0.1-0.4-0.4-0.4c-1.1,0-2.1,0-3.2,0c-0.2,0-0.3,0.1-0.3,0.3c0.2,1.7,0.3,3.4,0.4,5c0,0.3,0.1,0.4,0.4,0.5
		c2.4,0.7,4.9,1.4,7.3,2.1c0,1.1,0,2.2,0,3.4c0,0.3,0,0.4,0.4,0.3c3-0.9,6-1.7,9-2.5c0.3-0.1,0.4-0.2,0.4-0.4
		c0.5-6.3,1.1-12.7,1.6-19c0.1-1.9,0.3-3.7,0.5-5.6c0-0.3-0.1-0.4-0.4-0.4c-3.7,0-7.4,0-11.1,0c-0.3,0-0.4,0.1-0.4,0.4
		c0,1.1,0,2.1,0,3.2c-3,0-5.9,0-8.9,0c-0.2,0-0.4,0-0.3,0.3c0.1,1,0.2,2.1,0.3,3.2c0,0.3,0.2,0.4,0.4,0.4c2.3,0,4.6,0,6.8,0
		c-2.1,1.3-4.4,2.2-6.6,3.4c-0.2,0.1-0.3,0.2-0.3,0.5c0.1,1.1,0.2,2.2,0.3,3.2c0,0.3,0.2,0.4,0.4,0.4C24.7,34.5,27.4,34.6,30,34.6z"
		/>
	<path class="st3" d="M30,44.1c2.4-0.7,4.8-1.4,7.2-2c0.3-0.1,0.4-0.2,0.4-0.5c0.2-2,0.3-4,0.5-6c0.1-1.5,0.2-2.9,0.4-4.4
		c0-0.3,0-0.4-0.4-0.4c-2.2,0-4.3,0-6.5,0c0,0,0,0,0-0.1c2.3-1.2,4.6-2.3,6.9-3.5c0.2-0.1,0.3-0.2,0.4-0.5c0.1-1,0.2-2.1,0.3-3.1
		c0-0.3-0.2-0.3-0.4-0.3c-3,0-5.9,0-8.9,0c0-1.1,0-2.1,0-3.2c0-0.3,0.1-0.4,0.4-0.4c3.7,0,7.4,0,11.1,0c0.3,0,0.4,0.1,0.4,0.4
		c-0.2,1.9-0.3,3.7-0.5,5.6c-0.5,6.3-1.1,12.7-1.6,19c0,0.2-0.1,0.4-0.4,0.4c-3,0.8-6,1.7-9,2.5c-0.3,0.1-0.4,0-0.4-0.3
		C30,46.3,30,45.2,30,44.1z"/>
	<path class="st3" d="M30,34.6c1.4,0,2.8,0,4.1,0c0.2,0,0.3,0.1,0.2,0.3c-0.1,1.4-0.2,2.7-0.4,4.1c0,0.1,0,0.3-0.2,0.3
		c-1.3,0.3-2.5,0.7-3.8,1C30,38.3,30,36.4,30,34.6z"/>
</g>
</svg>
