<?xml version="1.0" encoding="UTF-8"?>
<svg id="Calque_1" xmlns="http://www.w3.org/2000/svg" width="30" height="30" version="1.1" viewBox="0 0 30 30">
  <!-- Generator: Adobe Illustrator 29.5.1, SVG Export Plug-In . SVG Version: 2.1.0 Build 141)  -->
  <defs>
    <style>
      .st0 {
        opacity: 0;
      }

      .st0, .st1 {
        fill: #fff;
      }
    </style>
  </defs>
  <g>
    <path class="st1" d="M25.14,27.44H4.86c-1.24-.37-1.99-1.12-2.36-2.36.12-6.72.12-13.43.12-20.15.37-1.24,1.12-1.99,2.36-2.36h17.04c1.87,1.87,3.73,3.73,5.47,5.47v17.04c-.37,1.24-1.12,1.99-2.36,2.36ZM24.76,24.7v-15.05c0-.25-.12-.5-.25-.62-1.12-1.12-2.11-2.24-3.23-3.23-.25-.25-.5-.37-.75-.37H5.61v19.28h19.15Z"/>
    <path class="st1" d="M7.23,7.16h12.31v5.47H7.23c0-1.87,0-3.61,0-5.47Z"/>
    <path class="st1" d="M15.06,15c2.36,0,4.1,1.87,4.1,4.1s-1.87,4.1-4.1,4.1c-2.36,0-4.1-1.87-4.1-4.1s1.87-4.1,4.1-4.1Z"/>
  </g>
  <rect class="st0" width="1.71" height="1.71"/>
  <rect class="st0" x="28.29" y="28.29" width="1.71" height="1.71"/>
</svg>