<?xml version="1.0" encoding="utf-8"?>
<!-- Generator: Adobe Illustrator 25.2.0, SVG Export Plug-In . SVG Version: 6.00 Build 0)  -->
<svg version="1.1" id="Calque_1" xmlns="http://www.w3.org/2000/svg" xmlns:xlink="http://www.w3.org/1999/xlink" x="0px" y="0px"
	 viewBox="0 0 60 60" style="enable-background:new 0 0 60 60;" xml:space="preserve">
<style type="text/css">
	.st0{fill:#B4BFCC;}
	.st1{fill:#FFFFFF;}
	.st2{enable-background:new    ;}
	.st3{fill:#DB3D3D;}
</style>
<rect y="4" class="st0" width="60" height="52"/>
<rect x="3" y="13.4" class="st1" width="54" height="39.6"/>
<ellipse class="st1" cx="4.6" cy="8.6" rx="1.6" ry="1.6"/>
<ellipse class="st1" cx="9.7" cy="8.6" rx="1.6" ry="1.6"/>
<ellipse class="st1" cx="14.8" cy="8.6" rx="1.6" ry="1.6"/>
<g class="st2">
	<path class="st3" d="M42.7,40.9L32.2,22.7c-0.5-0.8-1.3-1.3-2.2-1.3c-0.9,0-1.7,0.5-2.2,1.3L17.3,40.9c-0.5,0.8-0.5,1.8,0,2.8
		c0.4,0.8,1.3,1.3,2.2,1.3h21c0.9,0,1.8-0.5,2.2-1.3C43.3,42.8,43.3,41.7,42.7,40.9z"/>
	<path class="st1" d="M28.8,35.6c0,0.7,0.5,0.9,1.2,0.9c0.5,0,1.2-0.4,1.2-0.9c0-0.9,0-1.8,0.1-3c0-1.2,0-2.4,0-3.4
		c0-0.8-0.5-1.3-1.3-1.3s-1.4,0.5-1.4,1.3c0,0.9,0,2.2,0.1,3.3C28.8,33.7,28.8,34.5,28.8,35.6z"/>
	<path class="st1" d="M30,38.6c-0.8,0-1.4,0.7-1.4,1.4c0,0.8,0.7,1.4,1.4,1.4s1.4-0.7,1.4-1.4C31.4,39.2,30.8,38.6,30,38.6z"/>
</g>
</svg>
