<?xml version="1.0" encoding="UTF-8"?>
<svg id="Calque_1" data-name="Calque 1" xmlns="http://www.w3.org/2000/svg" xmlns:xlink="http://www.w3.org/1999/xlink" version="1.1" viewBox="0 0 79 100">
  <defs>
    <style>
      .cls-1 {
        fill: url(#Dégradé_sans_nom_17);
      }

      .cls-1, .cls-2 {
        stroke-width: 0px;
      }

      .cls-2 {
        fill: url(#Dégradé_sans_nom_26);
      }
    </style>
    <linearGradient id="Dégradé_sans_nom_17" data-name="Dégradé sans nom 17" x1="39.5" y1="1.5" x2="39.5" y2="99.7" gradientUnits="userSpaceOnUse">
      <stop offset="0" stop-color="#f64138"/>
      <stop offset=".5" stop-color="#ff8403"/>
      <stop offset="1" stop-color="#ff9704"/>
    </linearGradient>
    <linearGradient id="Dégradé_sans_nom_26" data-name="Dégradé sans nom 26" x1="40" y1="36.9" x2="40" y2="99.6" gradientUnits="userSpaceOnUse">
      <stop offset="0" stop-color="#fbf175"/>
      <stop offset=".8" stop-color="#fef6a1"/>
      <stop offset="1" stop-color="#ffb329"/>
    </linearGradient>
  </defs>
  <path class="cls-1" d="M17.5,47.7c.4-.8.3-1.5.4-2.3.7-5.1,3.1-9.4,6.1-13.5,1.8-2.4,4-4.5,6-6.8,3.7-4.1,5.2-8.9,4.1-14.4-.5-2.5-1.8-4.7-3.3-6.6-.4-.6-1-1.1-1.4-1.7-.5-.5-.7-1.1-.3-1.8.3-.7.9-.8,1.6-.8,2.2.1,4.4.3,6.6.8,4.5.9,8.7,2.4,12.4,5.2,4.8,3.6,7.7,8.5,9.2,14.2,1.5,5.4,1.3,10.9.3,16.4-.5,2.8-1.2,5.6-1.1,8.4,0,1,.2,2.1.6,3,1.3,2.6,4.8,3.5,7.4,2,1.3-.8,2.2-1.9,2.8-3.3.2-.3.3-.7.5-1,.7-1.3,1.7-1.5,2.7-.4,2.6,3,4.7,6.4,5.7,10.2,2.8,10.9,1.3,21-5.8,29.9-6.8,8.5-15.7,13.4-26.6,14.3-11.2.9-21.6-1.6-30.5-8.7-5.7-4.5-9.7-10.3-12.2-17.2-2.8-7.5-3.3-15.2-1.7-23.1,1.7-8.2,5.6-15.4,11.8-21.1.6-.5,1.1-1,1.9-.6.9.4.9,1.1.9,1.9-.3,3.5-.4,7.1,0,10.6.2,1.7.5,3.4,1.2,5,.2.4.3.8.7,1ZM41.3,95.9c4.1.2,8-.9,11.8-2.4,1.1-.4,2.5-.7,3.2-1.7,4.6-6.2,4.9-13.4,1.3-19.8-1.9-3.5-4.4-6.5-7-9.5-3.6-4.3-5.6-9.1-5.7-14.7,0-4,.7-7.7,2.2-11.4.2-.4.4-.9,0-1.2-.4-.3-.8,0-1.1.3-4.4,3.1-8.3,6.7-11.1,11.4-2.5,4.3-4.2,8.9-4.8,13.9-.4,3.2.2,6.2,1.4,9.2.4,1.1.9,2.1.8,3.3,0,1.5-1.5,2.3-2.8,1.6-.4-.2-.8-.5-1.2-.9-1.6-1.5-2.8-3.4-3.5-5.5-.2-.5-.2-1-.8-1.1-.7-.1-.9.5-1.1.9-3,5.3-4,11-2.4,16.9.8,3.3,2.6,5.9,6,7.3,2,.8,4.1,1.5,6.2,2.2,2.8.9,5.6,1.3,8.5,1.2Z"/>
  <path class="cls-2" d="M60,80.1s0,0,0,0c0-1.2-.1-2.2-.4-2.9-.4-1.8-1.1-3.5-2-5.2-1.9-3.5-4.4-6.5-7-9.5-3.6-4.3-5.6-9.1-5.7-14.7,0-4,.7-7.7,2.2-11.4.2-.4.4-.9,0-1.2-.4-.3-.8,0-1.1.3-4.4,3.1-8.3,6.7-11.1,11.4-2.5,4.3-4.2,8.9-4.8,13.9-.4,3.2.2,6.2,1.4,9.2.4,1.1.9,2.1.8,3.3,0,1.5-1.5,2.3-2.8,1.6-.4-.2-.8-.5-1.2-.9-1.6-1.5-2.8-3.4-3.5-5.5-.2-.5-.2-1-.8-1.1-.7-.1-.9.5-1.1.9-3,5.3-4,11-2.4,16.9.2.8.5,1.6.8,2.3,2.9,7.3,10.2,12.5,18.6,12.5s12.2-3.1,15.9-7.8c.1-.1.3-.3.4-.4,2.7-3.7,3.9-7.7,3.7-11.6Z"/>
</svg>