<?xml version="1.0" encoding="utf-8"?>
<!-- Generator: Adobe Illustrator 25.2.0, SVG Export Plug-In . SVG Version: 6.00 Build 0)  -->
<svg version="1.1" id="Layer_1" xmlns="http://www.w3.org/2000/svg" xmlns:xlink="http://www.w3.org/1999/xlink" x="0px" y="0px"
	 viewBox="0 0 11 20" style="enable-background:new 0 0 11 20;" xml:space="preserve">
<style type="text/css">
	.st0{fill:#FFFFFF;}
</style>
<path class="st0" d="M1.6,0C1.2,0,0.7,0.2,0.5,0.4C0.3,0.8,0.1,1,0.1,1.5s0.2,0.9,0.4,1.1L7.6,10l-7.1,7.4c-0.6,0.6-0.6,1.5,0,2.1
	C0.7,19.8,1.1,20,1.6,20c0.2,0,0.6-0.2,0.9-0.4l8.1-8.5c0.2-0.2,0.4-0.7,0.4-1.1s-0.2-0.9-0.4-1.1L2.5,0.4C2.2,0.2,1.8,0,1.6,0z"/>
</svg>
