<?xml version="1.0" encoding="utf-8"?>
<!-- Generator: Adobe Illustrator 25.2.0, SVG Export Plug-In . SVG Version: 6.00 Build 0)  -->
<svg version="1.1" id="Layer_1" xmlns="http://www.w3.org/2000/svg" xmlns:xlink="http://www.w3.org/1999/xlink" x="0px" y="0px"
	 viewBox="0 0 11 20" style="enable-background:new 0 0 11 20;" xml:space="preserve">
<style type="text/css">
	.st0{fill:#FFFFFF;}
</style>
<path class="st0" d="M9.4,20c0.4,0,0.9-0.2,1.1-0.4c0.2-0.4,0.4-0.6,0.4-1.1s-0.2-0.9-0.4-1.1L3.4,10l7.1-7.4c0.6-0.6,0.6-1.5,0-2.1
	C10.3,0.2,9.9,0,9.4,0C9.2,0,8.8,0.2,8.5,0.4L0.4,8.9C0.2,9.1,0,9.6,0,10s0.2,0.9,0.4,1.1l8.1,8.5C8.8,19.8,9.2,20,9.4,20z"/>
</svg>
