<?xml version="1.0" encoding="UTF-8"?>
<svg id="Calque_1" xmlns="http://www.w3.org/2000/svg" width="6.3mm" height="6.3mm" version="1.1" viewBox="0 0 18 18">
  <!-- Generator: Adobe Illustrator 29.0.1, SVG Export Plug-In . SVG Version: 2.1.0 Build 192)  -->
  <defs>
    <style>
      .st0 {
        fill: #1d2327;
      }
    </style>
  </defs>
  <path class="st0" d="M10.4.1h-.9C9.5,0,8.4,0,8.4,0,8.1,0,7.8.1,7.5.1,3.5.8.4,4.1,0,8.1c-.1.9,0,2.1.1,2.5,1.3,7.4,10.6,10.1,15.7,4.4C20.4,9.7,17.4,1.2,10.4.1ZM9,16.3C-.8,15.8-.7,2.1,9,1.6c9.8.5,9.8,14.2,0,14.7Z"/>
  <path class="st0" d="M11.5,10.9l-1.6-1.6c-.2-.2-.3-.4-.3-.6v-3.5c0-.2-.1-.4-.2-.5-.2-.2-.4-.2-.6,0-.3,0-.4.3-.4.5v4.1c0,.2.1.4.3.6.6.6,2.4,2.3,2.9,2.8s.6.2.8-.1c.5-.6-.5-1.1-.9-1.6Z"/>
</svg>