<?xml version="1.0" encoding="utf-8"?>
<!-- Generator: Adobe Illustrator 25.2.0, SVG Export Plug-In . SVG Version: 6.00 Build 0)  -->
<svg version="1.1" id="Calque_1" xmlns="http://www.w3.org/2000/svg" xmlns:xlink="http://www.w3.org/1999/xlink" x="0px" y="0px"
	 viewBox="0 0 60 60" style="enable-background:new 0 0 60 60;" xml:space="preserve">
<style type="text/css">
	.st0{fill:#B2EDCE;}
	.st1{fill:#008A56;}
	.st2{fill:#F89530;}
</style>
<rect id="Rectangle_1421" y="3.5" class="st0" width="46.9" height="36.8"/>
<path id="Tracé_406" class="st1" d="M40,32.7H6.7l13-18.1l6.3,7.6l3.1-3.6L40,32.7z"/>
<circle id="Ellipse_57" class="st2" cx="36.8" cy="14.2" r="3.1"/>
<path class="st1" d="M59.6,40.4c-0.6-0.6-1.8-0.6-2.4,0L44.4,52.5l-4.6-4.4c-0.6-0.6-1.8-0.6-2.4,0c-0.2,0.3-0.4,0.7-0.4,1.3
	c0,0.4,0.2,0.8,0.4,1.2l5.9,5.6c0.3,0.3,0.7,0.4,1.2,0.4c0.4,0,0.9-0.2,1.2-0.4l13.9-13.3c0.3-0.3,0.5-0.7,0.5-1.2
	C60,41.1,59.8,40.8,59.6,40.4z"/>
</svg>
