<?xml version="1.0" encoding="utf-8"?>
<!-- Generator: Adobe Illustrator 25.2.0, SVG Export Plug-In . SVG Version: 6.00 Build 0)  -->
<svg version="1.1" id="Calque_1" xmlns="http://www.w3.org/2000/svg" xmlns:xlink="http://www.w3.org/1999/xlink" x="0px" y="0px"
	 viewBox="0 0 60 60" style="enable-background:new 0 0 60 60;" xml:space="preserve">
<style type="text/css">
	.st0{fill:#B4BFCC;}
	.st1{fill:#FFFFFF;}
	.st2{fill:#EC9B24;}
	.st3{fill:#FCCC00;}
</style>
<rect y="4" class="st0" width="60" height="52"/>
<rect x="3" y="13.4" class="st1" width="54" height="39.6"/>
<ellipse class="st1" cx="4.6" cy="8.6" rx="1.6" ry="1.6"/>
<ellipse class="st1" cx="9.7" cy="8.6" rx="1.6" ry="1.6"/>
<ellipse class="st1" cx="14.8" cy="8.6" rx="1.6" ry="1.6"/>
<g id="js" transform="translate(-3)">
	<path id="Tracé_391" class="st2" d="M47.5,17.4c0.2,0,0.3,0.1,0.3,0.3c-0.2,2.5-2.5,27.2-2.7,29c0,0.2-0.1,0.2-0.2,0.3
		c-3.9,1.1-7.8,2.1-11.7,3.2c-0.1,0.1-0.3,0.1-0.4,0c-3.8-1-7.7-2.1-11.6-3.2c-0.1-0.1-0.2-0.2-0.3-0.3c-0.4-4.3-2.5-27.6-2.7-29.1
		c0-0.2,0.1-0.2,0.2-0.2H47.5z M42.7,45.4c0.1,0,0.2,0,0.2-0.1c0,0,0,0,0,0c0.1-0.5,2.1-23.9,2.2-24.9c0-0.2-0.1-0.3-0.3-0.3H33.3
		c-0.2,0-0.3,0.1-0.3,0.3v27.5c0,0.1,0,0.1,0.1,0.2c0.1,0.1,0.2,0,0.3,0c2.2-0.6,4.4-1.2,6.7-1.8C41,45.8,41.8,45.6,42.7,45.4z
		 M31.9,33.4V24c0-0.2-0.1-0.2-0.2-0.2h-2.5c-0.2,0-0.2,0.1-0.2,0.2v14.6c0,0.3,0,0.3-0.3,0.2c-1.8-0.4-3.4-0.9-5.1-1.4
		c-0.3-0.1-0.3-0.1-0.3,0.2v3c0,0.2,0.1,0.3,0.3,0.3c2,0.5,3.9,1,5.9,1.5c0.8,0.2,1.5,0.4,2.3,0.6c0.2,0.1,0.2,0,0.2-0.2v-0.2
		C31.9,39.6,31.9,36.5,31.9,33.4z"/>
	<path id="Tracé_392" class="st3" d="M33.2,48c-0.1-0.1-0.1-0.2-0.1-0.3V20.3C33,20,33.1,20,33.3,20h11.5c0.2,0,0.3,0,0.3,0.3
		c-0.1,0.9-2.2,24.4-2.2,24.9c0,0.1-0.1,0.2-0.1,0.2c0,0-4,1.2-5.6,1.6C36.2,47.2,34,47.8,33.2,48z M34.3,36.1c0,0.3,0,0.3,0.3,0.2
		c1.8-0.3,3.4-0.6,5.2-0.9c0.2-0.1,0.3,0,0.2,0.2C40,36.4,40,37.2,40,37.9c0,0.2-0.1,0.3-0.3,0.3c-1.8,0.4-3.5,0.9-5.3,1.4
		c-0.1,0.1-0.2,0.1-0.2,0.2c0,1,0.1,2,0.1,3.1c0,0.2,0.1,0.2,0.2,0.2c2.5-0.7,5-1.3,7.6-1.9c0.1-0.1,0.2-0.1,0.2-0.2
		c0.3-3,0.5-6,0.8-9c0-0.3,0-0.3-0.3-0.2c-1.8,0.2-3.6,0.4-5.4,0.6c-0.2,0-0.2-0.1-0.2-0.2v-4.5c0-0.2,0.1-0.3,0.3-0.3h5.7
		c0.2,0,0.3-0.1,0.3-0.3c0.1-1,0.1-2,0.2-2.9c0-0.2-0.1-0.3-0.3-0.3c-3,0-6,0.1-8.9,0.1c-0.2,0-0.3,0.1-0.3,0.2
		C34.2,26.1,34.3,34,34.3,36.1z"/>
</g>
</svg>
