<?xml version="1.0" encoding="utf-8"?>
<!-- Generator: Adobe Illustrator 25.2.0, SVG Export Plug-In . SVG Version: 6.00 Build 0)  -->
<svg version="1.1" id="Layer_1" xmlns="http://www.w3.org/2000/svg" xmlns:xlink="http://www.w3.org/1999/xlink" x="0px" y="0px"
	 viewBox="0 0 20 20" style="enable-background:new 0 0 20 20;" xml:space="preserve">
<style type="text/css">
	.st0{fill:#0088CC;}
</style>
<g>
	<path class="st0" d="M18.9,10.7C18.9,10.7,18.9,10.7,18.9,10.7c-0.3,0-0.6,0.1-0.8,0.3c-0.2,0.2-0.3,0.6-0.3,1c0,0,0,4,0,4.9
		c0,0.7-0.2,0.9-0.9,0.9l-13.6,0c-0.7,0-0.9-0.2-0.9-0.9c0-4.5,0-9.1,0-13.6c0-0.7,0.2-1,1-1c0,0,3.9,0,5,0c0.7,0,1.1-0.4,1.1-1.1
		C9.3,0.4,9,0,8.4,0H2.6C0.9,0,0,1,0,2.7v14.6c0,0.5,0.2,1,0.5,1.4c0.6,0.8,1.2,1.1,2.1,1.3l15,0c1.6,0,2.5-1.5,2.5-3.1
		c0-1.7,0-3.3,0-5C20,11.2,19.6,10.7,18.9,10.7z"/>
	<path class="st0" d="M20,2.6c0-0.6,0-1.1,0-1.2c0-1.2-0.8-1.4-1.5-1.4h-5.9l-0.1,0c-0.7,0.4-1,0.8-0.8,1.4c0.2,0.7,0.8,0.8,1.3,0.8
		c1,0,2.5,0,3.2,0c-3,2.8-6.1,5.9-8.7,8.6c-0.2,0.2-0.6,0.6-0.4,1.2c0.2,0.5,0.6,0.8,1,0.8c0,0,0.1,0,0.1,0c0.2,0,0.5-0.1,0.9-0.4
		c2.2-2.3,7.4-7.5,8.8-9c0,0.8-0.1,2.6-0.1,3.7c0,0.3,0.1,0.6,0.3,0.8c0.2,0.2,0.5,0.3,0.8,0.3c0.6,0,1.1-0.5,1.1-1.1
		C20,6.6,20,4.1,20,2.6z"/>
</g>
</svg>
