<?xml version="1.0" encoding="utf-8"?>
<!-- Generator: Adobe Illustrator 25.2.0, SVG Export Plug-In . SVG Version: 6.00 Build 0)  -->
<svg version="1.1" id="Calque_1" xmlns="http://www.w3.org/2000/svg" xmlns:xlink="http://www.w3.org/1999/xlink" x="0px" y="0px"
	 viewBox="0 0 20 20" style="enable-background:new 0 0 20 20;" xml:space="preserve">
<style type="text/css">
	.st0{fill:#FFFFFF;}
</style>
<path class="st0" d="M17.5,20c-0.4,0-0.7-0.1-1-0.4l-9-8.9c-0.6-0.6-0.6-1.5,0-2l1-1c0.6-0.6,1.5-0.6,2,0l9,8.9c0.6,0.6,0.6,1.5,0,2
	l-1,1C18.3,19.9,17.9,20,17.5,20z M17.5,18.6L17,19.1L17.5,18.6C17.5,18.6,17.5,18.6,17.5,18.6L17.5,18.6z M9.6,8.6l-1,1l8.9,8.9
	l1-1L9.6,8.6z"/>
<path class="st0" d="M17,19.1l-5.5-5.5c-0.3-0.3-0.3-0.7,0-1l1.2-1.2c0.3-0.3,0.7-0.3,1,0l5.5,5.5c0.3,0.3,0.3,0.7,0,1L18,19.1
	C17.7,19.4,17.3,19.4,17,19.1z"/>
<path class="st0" d="M0,6.6c0.5-0.2,0.9-0.3,1.3-0.5C1.6,6,1.9,5.9,2.1,5.8c0.1,0,0.2-0.1,0.2-0.2C2.6,5,2.8,4.3,3,3.7
	c0-0.1,0-0.1,0.1-0.2c0,0.1,0.1,0.2,0.1,0.3C3.5,4.4,3.7,5,3.9,5.6C4,5.7,4,5.8,4.1,5.8c0.7,0.2,1.4,0.5,2.1,0.8
	c-0.1,0-0.1,0.1-0.2,0.1C5.4,6.9,4.8,7.1,4.2,7.4C4,7.4,3.9,7.5,3.9,7.7C3.7,8.3,3.4,8.9,3.2,9.5c0,0.1,0,0.1-0.1,0.2
	c0-0.1-0.1-0.1-0.1-0.2C2.8,8.9,2.6,8.2,2.3,7.6c0-0.1-0.1-0.2-0.2-0.2C1.4,7.1,0.8,6.9,0,6.6z"/>
<path class="st0" d="M2.3,15.8c0.3-0.1,0.5-0.2,0.7-0.3c0.1-0.1,0.3-0.1,0.4-0.2c0.1,0,0.1-0.1,0.1-0.1c0.1-0.4,0.3-0.7,0.4-1.1
	c0,0,0-0.1,0-0.1c0,0.1,0,0.1,0.1,0.2c0.1,0.3,0.3,0.7,0.4,1c0,0.1,0.1,0.1,0.1,0.1c0.4,0.1,0.8,0.3,1.2,0.4c0,0-0.1,0-0.1,0
	c-0.4,0.1-0.7,0.3-1.1,0.4c-0.1,0-0.1,0.1-0.2,0.2c-0.1,0.3-0.3,0.7-0.4,1c0,0,0,0.1,0,0.1c0,0,0-0.1,0-0.1
	c-0.1-0.4-0.3-0.7-0.4-1.1c0,0-0.1-0.1-0.1-0.1C3.1,16.1,2.7,15.9,2.3,15.8z"/>
<path class="st0" d="M10.3,2.4c0.4-0.1,0.7-0.3,1-0.4c0.2-0.1,0.4-0.2,0.6-0.2c0.1,0,0.1-0.1,0.2-0.2c0.2-0.5,0.4-1,0.5-1.5
	c0,0,0-0.1,0.1-0.2c0,0.1,0.1,0.2,0.1,0.2c0.2,0.5,0.3,0.9,0.5,1.4c0,0.1,0.1,0.1,0.2,0.2C14,2,14.5,2.2,15,2.4
	c-0.1,0-0.1,0-0.1,0.1c-0.5,0.2-1,0.4-1.4,0.5c-0.1,0-0.2,0.1-0.2,0.3c-0.2,0.5-0.3,0.9-0.5,1.4c0,0,0,0.1-0.1,0.1
	c0-0.1,0-0.1-0.1-0.1c-0.2-0.5-0.4-1-0.5-1.5C12,3.1,12,3,11.9,3C11.4,2.8,10.8,2.6,10.3,2.4z"/>
</svg>
