<?xml version="1.0" encoding="utf-8"?>
<!-- Generator: Adobe Illustrator 25.2.0, SVG Export Plug-In . SVG Version: 6.00 Build 0)  -->
<svg version="1.1" id="Calque_1" xmlns="http://www.w3.org/2000/svg" xmlns:xlink="http://www.w3.org/1999/xlink" x="0px" y="0px"
	 viewBox="0 0 60 60" style="enable-background:new 0 0 60 60;" xml:space="preserve">
<style type="text/css">
	.st0{fill:url(#SVGID_1_);}
	.st1{fill:#FFFFFF;}
	.st2{fill:#BDDCF4;}
</style>
<g>
	
		<linearGradient id="SVGID_1_" gradientUnits="userSpaceOnUse" x1="6.6269" y1="47.417" x2="47.9225" y2="20.2224" gradientTransform="matrix(1 0 0 -1 0 62)">
		<stop  offset="0" style="stop-color:#6A676A"/>
		<stop  offset="1" style="stop-color:#332F33"/>
	</linearGradient>
	<rect x="14.1" class="st0" width="31.7" height="60"/>
	<rect x="16.7" y="7.9" class="st1" width="27" height="44"/>
	<circle class="st1" cx="30.1" cy="55.7" r="2.2"/>
	<path class="st1" d="M35.3,4.6H25c-0.3,0-0.5-0.2-0.5-0.5V3.6c0-0.3,0.2-0.5,0.5-0.5h10.3c0.3,0,0.5,0.2,0.5,0.5v0.5
		C35.8,4.3,35.6,4.6,35.3,4.6z"/>
	<circle class="st1" cx="39.7" cy="3.8" r="1.3"/>
</g>
<rect x="19.8" y="13.3" class="st2" width="20.7" height="20.7"/>
<rect x="19.8" y="37.2" class="st2" width="20.7" height="4.4"/>
<rect x="19.8" y="44.3" class="st2" width="20.7" height="2.2"/>
</svg>
