<?xml version="1.0" encoding="utf-8"?>
<!-- Generator: Adobe Illustrator 25.2.0, SVG Export Plug-In . SVG Version: 6.00 Build 0)  -->
<svg version="1.1" id="Layer_1" xmlns="http://www.w3.org/2000/svg" xmlns:xlink="http://www.w3.org/1999/xlink" x="0px" y="0px"
	 viewBox="0 0 14 14" style="enable-background:new 0 0 14 14;" xml:space="preserve">
<style type="text/css">
	.st0{fill:#0088CC;}
</style>
<g>
	<path class="st0" d="M8.5,3L8.5,3c-2.8,2.6-5.5,5.1-8.2,7.6C0.1,10.7,0,10.8,0,10.9c0,0.8,0,1.8,0,2.6c0.8,0,1.6,0,2.5,0
		c0.2,0,0.5-0.1,0.7-0.2c1.8-1.7,3.5-3.2,5.3-4.8c0.9-0.8,1.9-1.8,2.8-2.6C10.4,4.9,9.4,3.9,8.5,3z M9.5,2c0.9,0.9,1.9,1.9,2.8,2.8
		c0.5-0.5,1.1-1.1,1.6-1.5c-0.9-0.9-1.9-1.9-2.8-2.8C10.6,1,10,1.6,9.5,2z"/>
</g>
</svg>
