<?xml version="1.0" encoding="utf-8"?>
<!-- Generator: Adobe Illustrator 25.2.0, SVG Export Plug-In . SVG Version: 6.00 Build 0)  -->
<svg version="1.1" id="Layer_1" xmlns="http://www.w3.org/2000/svg" xmlns:xlink="http://www.w3.org/1999/xlink" x="0px" y="0px"
	 viewBox="0 0 14 14" style="enable-background:new 0 0 14 14;" xml:space="preserve">
<style type="text/css">
	.st0{fill:#292F34;}
</style>
<g>
	<path class="st0" d="M9,0.4C8.7,0.1,8.4,0,8.1,0H1.9c-0.5,0-1,0.4-1,1v12c0,0.5,0.4,1,1,1h9.9c0.5,0,1-0.4,1-1V4.7
		c0-0.3-0.1-0.6-0.3-0.8L9,0.4z M8.4,1.4l3,3h-3V1.4z M11.7,12.9H2V1.1h5.4v3.4c0,0.5,0.4,1,1,1h3.3V12.9z"/>
	<path class="st0" d="M3.8,7C3.5,7,3.3,7.2,3.3,7.5s0.2,0.5,0.5,0.5h4.5c0.3,0,0.5-0.2,0.5-0.5S8.6,7,8.3,7H3.8z"/>
	<path class="st0" d="M8.3,9.7H3.8c-0.3,0-0.5,0.2-0.5,0.5s0.2,0.5,0.5,0.5h4.5c0.3,0,0.5-0.2,0.5-0.5S8.6,9.7,8.3,9.7z"/>
</g>
</svg>
