<?xml version="1.0" encoding="utf-8"?>
<!-- Generator: Adobe Illustrator 25.2.0, SVG Export Plug-In . SVG Version: 6.00 Build 0)  -->
<svg version="1.1" id="Calque_1" xmlns="http://www.w3.org/2000/svg" xmlns:xlink="http://www.w3.org/1999/xlink" x="0px" y="0px"
	 viewBox="0 0 128 128" style="enable-background:new 0 0 128 128;" xml:space="preserve">
<style type="text/css">
	.st0{opacity:0.4;}
	.st1{fill:#D4D9DD;}
	.st2{fill:url(#SVGID_1_);}
	.st3{fill:url(#SVGID_2_);}
	.st4{fill:url(#SVGID_3_);}
	.st5{fill:#FFC37B;}
	.st6{fill:#F44914;}
	.st7{fill:url(#SVGID_4_);}
	.st8{fill:#FFFFFF;}
	.st9{fill:#007EAA;}
	.st10{fill:#0B1423;}
	.st11{fill:#FF5252;}
	.st12{fill:#FFA35F;}
	.st13{fill:#97E55A;}
	.st14{opacity:0.4;fill:#D4D9DD;}
	.st15{fill:#FFD664;}
	.st16{fill:#DD2626;}
</style>
<g class="st0">
	<path class="st1" d="M19.3,70.8c-1.1,0-2.1,0.9-2.1,2.1v53.1c0,1.1,0.9,2.1,2.1,2.1c1.1,0,2.1-0.9,2.1-2.1V72.8
		C21.4,71.7,20.4,70.8,19.3,70.8z"/>
	<path class="st1" d="M37,67.8c-1.1,0-2.1,0.9-2.1,2.1v49.1c0,1.1,0.9,2.1,2.1,2.1c1.1,0,2.1-0.9,2.1-2.1V69.8
		C39.1,68.7,38.2,67.8,37,67.8z"/>
	<path class="st1" d="M27.8,73c-1.1,0-2.1,0.9-2.1,2.1v40.2c0,1.1,0.9,2.1,2.1,2.1c1.1,0,2.1-0.9,2.1-2.1V75
		C29.9,73.9,29,73,27.8,73z"/>
	<path class="st1" d="M11.3,60.1c-1.1,0-2.1,0.9-2.1,2.1v24.3c0,1.1,0.9,2.1,2.1,2.1c1.1,0,2.1-0.9,2.1-2.1V62.2
		C13.3,61.1,12.4,60.1,11.3,60.1z"/>
	<path class="st1" d="M11.2,91.8c-1.1,0-2.1,0.9-2.1,2.1v9.5c0,1.1,0.9,2.1,2.1,2.1c1.1,0,2.1-0.9,2.1-2.1v-9.5
		C13.3,92.8,12.4,91.8,11.2,91.8z"/>
	<path class="st1" d="M11.2,108.8c-1.1,0-2.1,0.9-2.1,2.1v0.8c0,1.1,0.9,2.1,2.1,2.1c1.1,0,2.1-0.9,2.1-2.1v-0.8
		C13.3,109.7,12.4,108.8,11.2,108.8z"/>
	<path class="st1" d="M27.8,119.7c-1.1,0-2.1,0.9-2.1,2.1v0.8c0,1.1,0.9,2.1,2.1,2.1c1.1,0,2.1-0.9,2.1-2.1v-0.8
		C29.9,120.6,29,119.7,27.8,119.7z"/>
</g>
<g>
	
		<linearGradient id="SVGID_1_" gradientUnits="userSpaceOnUse" x1="11.2783" y1="80.1958" x2="44.5735" y2="80.1958" gradientTransform="matrix(1 0 0 -1 0 130)">
		<stop  offset="0" style="stop-color:#B8E5FF"/>
		<stop  offset="1" style="stop-color:#8CCFEC"/>
	</linearGradient>
	<path class="st2" d="M43.1,24.8c-4.4,0-25.2,0-30.4,0c-2.1,7.6-1.8,15.7-0.2,23.3c2.1,8.8,4.1,17.8,6,26.6h18.5
		c1.9-8.8,4.1-17.8,6-26.6C45,40.5,45,32.6,43.1,24.8z"/>
	<linearGradient id="SVGID_2_" gradientUnits="userSpaceOnUse" x1="0.3253" y1="64.709" x2="53.6207" y2="64.709">
		<stop  offset="0" style="stop-color:#3EBCDD"/>
		<stop  offset="1" style="stop-color:#007EAA"/>
	</linearGradient>
	<path class="st3" d="M12.5,48.3c2.1,8.8,4.1,17.6,6,26.5c-3.9,0-7.6,0-11.5,0c-0.7,0-1.1,0.2-0.9,1.1c0,1.6,0,3,0,4.6
		c0,0.5-0.2,0.7-0.7,0.7c-1.6,0-3.2,0-4.6,0c-0.7,0-0.9-0.4-0.9-0.9C0,73,0,65.8,0,58.7c0-0.4,0-0.7,0.5-1.1
		C4.6,54.3,8.6,51.3,12.5,48.3z"/>
	<linearGradient id="SVGID_3_" gradientUnits="userSpaceOnUse" x1="0.7832" y1="61.5341" x2="53.1042" y2="61.5341">
		<stop  offset="0" style="stop-color:#3EBCDD"/>
		<stop  offset="1" style="stop-color:#007EAA"/>
	</linearGradient>
	<path class="st4" d="M37,74.8c1.9-8.8,4.1-17.6,6-26.5c4.1,3,8.1,6,12.2,9.2c0.4,0.4-6,17.3-6.7,17.3C44.6,74.8,40.7,74.8,37,74.8z
		"/>
	<path class="st5" d="M18.5,74.8c3.2,0,15.5,0,18.5,0c0.5,10.1-0.9,18.7-8.8,25.8c-0.4,0.4-0.5,0.4-0.9,0
		C19.8,93.8,18,84.5,18.5,74.8z"/>
	<path class="st6" d="M21.7,74.8c2.1,0,10.2,0,12.4,0c0.4,6.7-0.5,12.3-5.8,16.9c-0.2,0.2-0.4,0.2-0.5,0
		C22.4,87.5,21.4,81.1,21.7,74.8z"/>
	<linearGradient id="SVGID_4_" gradientUnits="userSpaceOnUse" x1="0.3253" y1="12.4226" x2="53.6207" y2="12.4226">
		<stop  offset="0" style="stop-color:#3EBCDD"/>
		<stop  offset="1" style="stop-color:#007EAA"/>
	</linearGradient>
	<path class="st7" d="M43.1,24.5C40.6,15,35.5,6.9,28.2,0.2c-0.4-0.4-0.5,0-0.7,0.2C20.5,7,15,15.3,12.9,24.8c4.9,0,25.9,0,30.4,0
		C43.1,24.7,43.1,24.7,43.1,24.5z"/>
	<ellipse class="st8" cx="28.2" cy="43" rx="7.1" ry="7.1"/>
</g>
<g>
	<g>
		<ellipse class="st8" cx="28.1" cy="42.7" rx="12.8" ry="12.8"/>
	</g>
	<path class="st9" d="M35,43.9c0.3-1.1,0.3-2.1,0-3.2c-0.2-0.7-0.6-1.4-1-2c-0.3-0.5-0.7-1.1-0.7-1.7c-0.1-1.1,0.5-2.1,1.5-2.3
		c0.1,0,0.3,0,0.5-0.1c-3-2.5-6.3-3.4-10-2.5c-2.8,0.7-4.9,2.2-6.5,4.6c0.3,0.1,0.5,0.1,0.8,0.1c1-0.1,1.8-0.1,2.8-0.1
		c0.3,0,0.5,0.2,0.5,0.5c0.1,0.3-0.2,0.5-0.5,0.5c-0.1,0.1-0.9,0.1-1.3,0.1c1.3,4,2.7,7.9,4,11.9c0.1-0.1,1.6-4.8,2.3-7.1
		c0.1-0.1,0.1-0.2,0-0.3c-0.5-1.4-1.1-3-1.6-4.4c-0.1-0.2-0.2-0.2-0.3-0.2c-0.3,0-0.6-0.1-0.9-0.1c-0.3,0-0.5-0.2-0.5-0.5
		c0.1-0.3,0.2-0.5,0.5-0.5c0.3,0,2.3,0.1,3.1,0.1c1,0,1.9-0.1,2.8-0.1c0.3,0,0.5,0.2,0.5,0.5c0,0.3-0.2,0.5-0.5,0.5
		c-0.3,0.1-1.2,0.1-1.3,0.1c1.3,4,2.6,7.8,4,11.9c0.1-0.1,0.1-0.1,0-0.2C34,47.6,34.5,45.7,35,43.9z"/>
	<path class="st9" d="M24.9,53.2c2.2,0.7,4.4,0.6,6.6-0.2c-1.1-3.1-2.2-6.2-3.4-9.3C27,46.9,26,50,24.9,53.2z"/>
	<path class="st9" d="M23.2,52.5c-1.6-4.7-3.4-9.4-5.1-14.1C15.8,43.2,17.6,49.8,23.2,52.5z"/>
	<path class="st9" d="M38.7,45.6c0.7-2.7,0.3-5.2-1-7.7c0,0.1,0,0.2,0,0.3c0.1,0.9,0,1.8-0.2,2.7c-0.2,0.7-0.5,1.4-0.7,2.1
		c-1,2.8-3.2,9.2-3.3,9.6C36.1,50.9,37.9,48.6,38.7,45.6z"/>
</g>
<g>
	<rect x="39.3" y="57.4" class="st8" width="88.7" height="70.6"/>
	<rect x="40.9" y="59.1" class="st10" width="87.1" height="68.9"/>
	<rect x="44.7" y="68.6" class="st8" width="79.4" height="56.1"/>
	<circle class="st11" cx="45.7" cy="63.7" r="1.9"/>
	<circle class="st12" cx="51.5" cy="63.7" r="1.9"/>
	<circle class="st13" cx="57.4" cy="63.7" r="1.9"/>
	<path class="st1" d="M59.5,111.1C59.9,97.7,70.9,87,84.4,87c13.5,0,24.5,10.7,25,24.1h8.2c-0.4-17.9-15.1-32.3-33.2-32.3
		c-18,0-32.7,14.4-33.2,32.3H59.5z"/>
	<path class="st14" d="M104.5,111.1c-0.4-10.7-9.2-19.2-20-19.2c-10.8,0-19.6,8.5-20,19.2H104.5z"/>
	<path class="st13" d="M61.4,88.1c-6.1,5.9-9.9,14-10.1,23h8.2c0.2-6.8,3.1-12.9,7.7-17.2L61.4,88.1z"/>
	<path class="st15" d="M61.4,88.1l5.8,5.8c4.5-4.3,10.5-6.9,17.2-6.9v-8.2C75.5,78.8,67.4,82.3,61.4,88.1z"/>
	<path class="st12" d="M101.7,93.9l5.8-5.8c-6-5.8-14.1-9.3-23-9.3V87C91.1,87,97.2,89.6,101.7,93.9z"/>
	<path class="st11" d="M107.5,88.1l-5.8,5.8c4.6,4.4,7.5,10.5,7.7,17.2h8.2C117.4,102,113.5,93.9,107.5,88.1z"/>
	<path class="st16" d="M115.8,97.3l-35.1,17.1c-0.6,0.3-1.4,0-1.7-0.6l0,0c-0.3-0.6,0-1.4,0.6-1.7L114.7,95c0.6-0.3,1.4,0,1.7,0.6
		l0,0C116.7,96.2,116.5,97,115.8,97.3z"/>
	<ellipse class="st10" cx="84.4" cy="111.1" rx="3" ry="3"/>
</g>
</svg>
