<?xml version="1.0" encoding="utf-8"?>
<!-- Generator: Adobe Illustrator 25.2.0, SVG Export Plug-In . SVG Version: 6.00 Build 0)  -->
<svg version="1.1" id="Calque_1" xmlns="http://www.w3.org/2000/svg" xmlns:xlink="http://www.w3.org/1999/xlink" x="0px" y="0px"
	 viewBox="0 0 20 15" style="enable-background:new 0 0 20 15;" xml:space="preserve">
<style type="text/css">
	.st0{fill:#FFFFFF;}
</style>
<g>
	<g>
		<path class="st0" d="M10,1.5C6.2,1.5,2.8,3.6,0.2,7c-0.2,0.3-0.2,0.6,0,0.9c2.5,3.5,6,5.6,9.8,5.6s7.2-2.1,9.8-5.5
			c0.2-0.3,0.2-0.6,0-0.9C17.2,3.6,13.8,1.5,10,1.5z M10.3,11.7c-2.5,0.2-4.6-1.9-4.5-4.5c0.1-2.1,1.8-3.8,3.9-4
			c2.5-0.2,4.6,1.9,4.4,4.5C14.1,9.9,12.3,11.6,10.3,11.7z M10.1,9.8C8.7,9.9,7.6,8.8,7.7,7.4c0.1-1.2,0.9-2.1,2.1-2.1
			c1.4-0.1,2.5,1.1,2.4,2.4C12.2,8.8,11.3,9.7,10.1,9.8z"/>
	</g>
</g>
</svg>
