<?xml version="1.0" encoding="UTF-8"?>
<svg id="Calque_1" xmlns="http://www.w3.org/2000/svg" width="21.2mm" height="21.2mm" version="1.1" viewBox="0 0 60 60">
  <!-- Generator: Adobe Illustrator 29.0.1, SVG Export Plug-In . SVG Version: 2.1.0 Build 192)  -->
  <defs>
    <style>
      .st0 {
        fill: #1c469d;
      }
    </style>
  </defs>
  <path class="st0" d="M55.3.1c-1.4.3-2.8,1.9-2.8,3.3v6.6c-.1,0,0,0-.1,0C41.5-2.3,22.6-3.3,10.3,7.4c-3.9,3.4-7.7,8.8-9,13.8-.9,3.5,2.9,6.2,5.8,4.1,1.3-.9,1.4-2.3,2-3.7,4.3-10.7,16.1-16.5,27.2-13.2,4,1.2,7.7,3.5,10.4,6.6h-5.7c-.7,0-1.7.4-2.2.8-2.4,2-1.5,5.9,1.6,6.6,5.3.2,10.6,0,15.9,0,2-.1,3.5-1.7,3.6-3.7V3.7c-.2-2.4-2.3-4.1-4.7-3.5Z"/>
  <path class="st0" d="M53.1,34.6c-1.4.9-1.5,2.1-2,3.5-4.1,10.4-15,16.3-26,13.9-4.5-1-8.7-3.5-11.7-6.9h5.8c1,0,2.2-.8,2.8-1.6,1.7-2.5,0-5.7-2.9-5.9H3.6c-1.9.1-3.3,1.5-3.5,3.4,0,5.4-.1,10.9,0,16.3.7,2.9,4.4,3.8,6.4,1.6.4-.4.9-1.5.9-2v-6.9c.1,0,0,0,.1,0,10.9,12.3,29.4,13.5,41.9,2.9,3.8-3.3,8-9,9.1-14,.8-3.3-2.7-6-5.6-4.2Z"/>
</svg>