<?xml version="1.0" encoding="utf-8"?>
<!-- Generator: Adobe Illustrator 25.2.0, SVG Export Plug-In . SVG Version: 6.00 Build 0)  -->
<svg version="1.1" id="Calque_1" xmlns="http://www.w3.org/2000/svg" xmlns:xlink="http://www.w3.org/1999/xlink" x="0px" y="0px"
	 viewBox="0 0 60 60" style="enable-background:new 0 0 60 60;" xml:space="preserve">
<style type="text/css">
	.st0{fill:#B4BFCC;}
	.st1{fill:#2893E9;}
	.st2{fill:#1B2E4B;}
</style>
<path class="st0" d="M30,5c13.8,0,25,11.2,25,25S43.8,55,30,55S5,43.8,5,30S16.2,5,30,5 M30,0C13.4,0,0,13.4,0,30s13.4,30,30,30
	s30-13.4,30-30S46.6,0,30,0L30,0z"/>
<path class="st1" d="M30,0v5c13.8,0,25,11.2,25,25S43.8,55,30,55c-6.9,0-13.1-2.8-17.7-7.3l-3.5,3.5C14.2,56.6,21.7,60,30,60
	c16.6,0,30-13.4,30-30S46.6,0,30,0z"/>
<g>
	<path class="st2" d="M22.9,19.1c2.9,0,5,1.7,5,5.1c0,3.3-2.1,5.1-5,5.1c-2.8,0-5-1.7-5-5.1C17.9,20.9,20,19.1,22.9,19.1z
		 M21.4,24.2c0,1.4,0.5,2,1.4,2c0.9,0,1.5-0.6,1.5-2c0-1.4-0.6-2.1-1.5-2.1C22,22.1,21.4,22.7,21.4,24.2z M33.3,19.4h4.9L26.7,40.6
		h-5L33.3,19.4z M37.1,30.8c2.8,0,5,1.7,5,5.1c0,3.3-2.1,5.1-5,5.1c-2.9,0-5-1.7-5-5.1C32.2,32.5,34.3,30.8,37.1,30.8z M35.7,35.8
		c0,1.4,0.5,2,1.4,2s1.5-0.6,1.5-2c0-1.4-0.6-2.1-1.5-2.1S35.7,34.4,35.7,35.8z"/>
</g>
</svg>
