<?xml version="1.0" encoding="utf-8"?>
<!-- Generator: Adobe Illustrator 25.2.0, SVG Export Plug-In . SVG Version: 6.00 Build 0)  -->
<svg version="1.1" id="Calque_1" xmlns="http://www.w3.org/2000/svg" xmlns:xlink="http://www.w3.org/1999/xlink" x="0px" y="0px"
	 viewBox="0 0 60 60" style="enable-background:new 0 0 60 60;" xml:space="preserve">
<style type="text/css">
	.st0{fill:#3B5A7F;}
	.st1{fill:#DF423B;}
	.st2{fill:#00995B;}
	.st3{fill:#1B2E4B;}
	.st4{fill:#BA1313;}
	.st5{fill:#00663A;}
</style>
<g>
	<path class="st0" d="M30,56.5c-5,0-10,0-14.9,0c-1.5,0-1-1.9-1.1-2.9c0-1.8,1.3-3.1,3.1-3.1c3,0,6.1,0,9.1,0c0.6,0,0.8-0.1,0.8-0.8
		c0-11.1-0.1-19.2,0-30.2c1.2,0.1,3.2-0.5,3,1.4c0,10.5,0,18.1,0,28.6c0,0.5-0.2,1.1,0.6,1.1c0.8,0,1.6,0,2.4,0c3.3,0,6.6,0,10,0
		c1.7,0,3,1.3,3,3c-5.1,0-10.2,0-15.3,0c-0.5,0-0.7,0.1-0.6,0.6C30,54.9,30,55.7,30,56.5z"/>
	<path class="st0" d="M27,14.7c-1.3-0.8-2.1-1.9-2.8-3.3c-0.1-0.6-0.2-1.1-0.3-1.7c0-0.3-0.2-0.3-0.4-0.3c-2.4,0-4.8,0-7.2,0
		c-0.2,0-0.4,0-0.4,0.3c0,0.6-0.3,1.1-0.5,1.7c-0.3,0.4-0.7,0.8-1,1.2c-0.6,0.3-1.2,0.6-1.8,0.8c-0.5,0-0.9,0-1.4,0
		c-0.6-0.2-1.2-0.5-1.8-0.8c-4.4-4.1,1.9-10,5.6-5.6c0.3,0.4,0.5,0.5,1,0.5c2.6,0,5.2,0,7.7,0c0.4,0,0.5-0.1,0.7-0.4
		c1.1-2.3,2.9-3.6,5.5-3.6c2.5,0,4.4,1.3,5.5,3.6c0.2,0.3,0.3,0.4,0.6,0.4c2.6,0,5.3,0,7.9,0c0.3,0,0.5,0,0.7-0.3
		c3.8-4.7,10.2,1.3,5.8,5.5c-0.6,0.3-1.2,0.6-1.8,0.8c-0.5,0-0.9,0-1.4,0c-0.6-0.2-1.2-0.5-1.8-0.8c-0.4-0.3-0.7-0.8-1-1.2
		c-0.2-0.5-0.5-1.1-0.5-1.7c0-0.3-0.2-0.3-0.4-0.3c-2.4,0-4.8,0-7.2,0c-0.2,0-0.4,0-0.4,0.3c-0.1,0.6-0.2,1.1-0.3,1.7
		c-0.6,1.3-1.5,2.5-2.8,3.3C31.1,15.7,28.9,15.7,27,14.7z M30,12.5c3.9-0.2,3.9-5.9,0-6C26,6.7,26.1,12.3,30,12.5z M12,7.5
		c-2.6,0-2.6,4,0,4C14.6,11.4,14.6,7.5,12,7.5z M50,9.5c0-2.6-4-2.6-4,0C46,12.1,50,12.1,50,9.5z"/>
	<path class="st1" d="M10.5,44.5c-1.5,0-3.1,0.2-4.6-0.2c-3.4-0.9-5.9-4-5.9-7.5c0-1.4,0.6-2.1,2-2.3c6.7,0,13.3,0,20,0
		c1.3,0.2,1.9,0.9,2,2c-3.3,0-6.6,0-9.9,0c-3,0-2,3.6-2.1,5.6C12.1,43.3,11.6,44,10.5,44.5z"/>
	<path class="st2" d="M58,27.5c1.3,0.2,1.9,0.9,2,2c-3.3,0-6.6,0-9.9,0c-3,0-2,3.6-2.1,5.6c0.1,1.2-0.4,1.9-1.5,2.4
		c-1.5,0-3.1,0.2-4.6-0.2c-3.4-0.9-5.9-4-5.9-7.5c0-1.4,0.6-2.1,2-2.3C44.7,27.5,51.3,27.5,58,27.5z"/>
	<path class="st3" d="M27,14.7c1.9,1,4.1,1,6,0c0.1,12.9,0,22.8,0,35.8c-0.8,0-1.6,0-2.4,0C29.8,50.6,30,50,30,49.5
		c0-10.5,0-18.1,0-28.6c0.2-1.9-1.8-1.3-3-1.4C27,17.9,27,16.3,27,14.7z"/>
	<path class="st4" d="M10.5,44.5c1.1-0.4,1.6-1.2,1.5-2.4c0.1-2-0.9-5.6,2.1-5.6c3.3,0,6.6,0,9.9,0c0.2,3.7-2.7,7.2-6.4,7.9
		C15.3,44.6,12.9,44.4,10.5,44.5z"/>
	<path class="st5" d="M46.5,37.5c1.1-0.4,1.6-1.2,1.5-2.4c0.1-2-0.9-5.6,2.1-5.6c3.3,0,6.6,0,9.9,0c0.2,3.7-2.7,7.2-6.4,7.9
		C51.3,37.6,48.9,37.4,46.5,37.5z"/>
	<path class="st3" d="M30,56.5c0-0.8,0-1.6,0-2.4c0-0.5,0.2-0.6,0.6-0.6c5.1,0,10.2,0,15.3,0c-0.1,1,0.5,3-1,3
		C40,56.5,35,56.5,30,56.5z"/>
	<path class="st3" d="M22,34.5c-0.7,0-1.4,0-2.1,0l-7.2-21c0.6-0.2,1.2-0.5,1.8-0.8L22,34.5z"/>
	<path class="st3" d="M58,27.5c-0.7,0-1.4,0-2.1,0c-2.4-5.4-4.8-8.7-7.2-14c0.6-0.2,1.2-0.5,1.8-0.8C53,18.3,55.7,21.8,58,27.5z"/>
	<path class="st3" d="M4.1,34.5c-0.7,0-1.4,0-2.1,0l7.5-21.8c0.5,0.4,1.2,0.6,1.8,0.8L4.1,34.5z"/>
	<path class="st3" d="M40.1,27.5c-0.7,0-1.4,0-2.1,0c2.3-5.7,5-9.2,7.5-14.8c0.5,0.4,1.2,0.6,1.8,0.8C44.9,18.8,42.5,22.1,40.1,27.5
		z"/>
	<path class="st3" d="M15.5,11.5c0.2-0.5,0.4-1.1,0.5-1.7c0-0.3,0.2-0.3,0.4-0.3c2.4,0,4.8,0,7.2,0c0.2,0,0.4,0,0.4,0.3
		c0.1,0.6,0.2,1.1,0.3,1.7C21.3,11.5,18.4,11.5,15.5,11.5z"/>
	<path class="st3" d="M35.7,11.5c0.1-0.6,0.2-1.1,0.3-1.7c0-0.3,0.2-0.3,0.4-0.3c2.4,0,4.8,0,7.2,0c0.2,0,0.4,0,0.4,0.3
		c0,0.6,0.3,1.1,0.5,1.7C41.6,11.5,38.7,11.5,35.7,11.5z"/>
	<path class="st3" d="M12,7.5c2.6,0,2.7,4,0,4C9.4,11.5,9.4,7.5,12,7.5z"/>
	<path class="st3" d="M50,9.5c0,2.6-4,2.6-4,0C46,6.8,50,6.8,50,9.5z"/>
</g>
</svg>
