<?xml version="1.0" encoding="UTF-8"?>
<svg id="Capa_1" xmlns="http://www.w3.org/2000/svg" width="30" height="30" version="1.1" viewBox="0 0 30 30">
  <!-- Generator: Adobe Illustrator 29.5.1, SVG Export Plug-In . SVG Version: 2.1.0 Build 141)  -->
  <defs>
    <style>
      .st0 {
        opacity: 0;
      }

      .st0, .st1 {
        fill: #fff;
      }
    </style>
  </defs>
  <g>
    <path class="st1" d="M11.95,23.15c.62,0,1.12-.5,1.12-1.12v-10.07c0-.62-.5-1.12-1.12-1.12s-1.12.5-1.12,1.12v10.2c.12.62.62,1,1.12,1Z"/>
    <path class="st1" d="M17.8,23.15c.62,0,1.12-.5,1.12-1.12v-10.07c0-.62-.5-1.12-1.12-1.12s-1.12.5-1.12,1.12v10.2c0,.62.5,1,1.12,1Z"/>
    <path class="st1" d="M26.26,6.85h0l-5.35-.12-1.62-3.61c-.25-.37-.62-.62-1-.62h-6.84c-.5,0-.87.25-1,.62l-1.62,3.61-5.22.12c-.62,0-1.12.5-1.12,1.12s.5,1.12,1.12,1.12h1.87l1.24,17.41c0,.62.5,1,1.12,1h14.05c.62,0,1-.37,1.12-1l1.62-17.41h1.74c.62,0,1.12-.5,1.12-1.12-.12-.62-.62-1.12-1.24-1.12ZM12.2,4.74h5.35l1,1.99h-7.21l.87-1.99ZM22.28,9.09l-1.49,16.04h-11.94v-.12l-1.12-16.04h14.68l-.12.12Z"/>
  </g>
  <rect class="st0" width="1.71" height="1.71"/>
  <rect class="st0" x="28.29" y="28.29" width="1.71" height="1.71"/>
</svg>