<?xml version="1.0" encoding="UTF-8"?>
<svg id="Calque_1" xmlns="http://www.w3.org/2000/svg" width="21.2mm" height="21.2mm" xmlns:xlink="http://www.w3.org/1999/xlink" version="1.1" viewBox="0 0 60 60">
  <!-- Generator: Adobe Illustrator 29.0.1, SVG Export Plug-In . SVG Version: 2.1.0 Build 192)  -->
  <defs>
    <style>
      .st0 {
        fill: #1b2e4b;
      }

      .st1 {
        fill: #fff;
        opacity: 0;
      }

      .st2 {
        fill: #ffd23e;
      }

      .st3 {
        fill: url(#Dégradé_sans_nom_14);
      }
    </style>
    <linearGradient id="Dégradé_sans_nom_14" data-name="Dégradé sans nom 14" x1="15.3" y1="31.2" x2="45" y2="31.2" gradientUnits="userSpaceOnUse">
      <stop offset="0" stop-color="#c7e7f8"/>
      <stop offset="1" stop-color="#a0ddf2"/>
    </linearGradient>
  </defs>
  <g>
    <path class="st3" d="M36.6,31.2c1.4,1.4,2.8,2.7,4.3,4,1.7,1.6,2.8,3.5,3.5,5.6,1,2.8.5,5.9.7,8.8-1.2,0-28.5,0-29.7,0-.4-10.3,1.1-11.8,8.4-18.6.8-.7.8-1.7,0-2.4-1.5-1.4-3-2.8-4.5-4.2-2.4-2.1-3.8-5.1-4-8.3,0-1.2,0-2.5,0-3.8h29.7v3.8c-.2,2.3-1,4.5-2.4,6.4-1.9,2.1-4.1,3.9-6.1,5.9-.7.8-.7,1.8,0,2.5Z"/>
    <path class="st0" d="M45,12.7H15.3v-2.4c0,0,0,0-.2,0-1.6,0-3.5.4-4.5-1.2-1-1.6.2-3.8,2.1-3.7h34.7c1.9,0,3.2,2.1,2.1,3.7-.9,1.6-2.9,1.2-4.5,1.2,0,0-.2,0-.2,0v2.4h0Z"/>
    <path class="st0" d="M47.5,49.8c1.9,0,3.1,2.1,2.1,3.7-.5.8-1.2,1.2-2.1,1.2H12.9c-.9,0-1.7-.5-2.1-1.2-1-1.6.2-3.7,2.1-3.7h34.7Z"/>
    <path class="st2" d="M41.3,49.8c-7.4,0-14.9,0-22.2,0,3.2-2.9,6.5-5.8,9.7-8.7.3-3.6,0-7.4,0-11.1.2-5.9-7.7-7.5-8.6-13,0-.3,0-.7,0-.9s0-.2.2-.2h19.3q.2,0,.2.2c0,1.3-.4,2.5-1.2,3.5-1.7,2-3.7,3.6-5.6,5.4-1.4,1.3-1.8,3.1-1.8,5v10.5c0,.2,0,.3.2.5,3.1,2.9,6.4,5.8,9.6,8.7Z"/>
  </g>
  <rect class="st1" width="3.9" height="3.9"/>
  <rect class="st1" x="56.1" y="56.1" width="3.9" height="3.9"/>
</svg>