<?xml version="1.0" encoding="UTF-8"?>
<svg id="Calque_1" xmlns="http://www.w3.org/2000/svg" width="21.2mm" height="21.2mm" version="1.1" viewBox="0 0 60 60">
  <!-- Generator: Adobe Illustrator 29.0.1, SVG Export Plug-In . SVG Version: 2.1.0 Build 192)  -->
  <defs>
    <style>
      .st0 {
        fill: #bdc4c6;
      }

      .st1 {
        fill: #efefef;
      }

      .st2 {
        fill: #fff;
      }

      .st3 {
        fill: #1d2327;
      }
    </style>
  </defs>
  <g id="Groupe_180">
    <rect id="Rectangle_1421" class="st1" x="0" width="60" height="43.7"/>
    <path id="Tracé_406" class="st0" d="M51.2,34.8H8.5L25.1,11.2l8,9.8,4-4.6,14.1,18.4Z"/>
    <ellipse id="Ellipse_57" class="st0" cx="47.1" cy="10.8" rx="4" ry="4.1"/>
  </g>
  <g>
    <rect class="st2" x="6.7" y="40.9" width="46.7" height="18.3"/>
    <path class="st3" d="M52.6,41.7v16.8H7.4v-16.8h45.2M54.1,40.2H5.9v19.8h48.2v-19.8h0Z"/>
  </g>
  <g>
    <path class="st3" d="M21.8,44.9v10.3h-1.7v-7.1l-3.2,7.1h-1.2l-3.2-7.1v7.1h-1.7v-10.3h1.8l3.6,8.1,3.6-8.1h1.8Z"/>
    <path class="st3" d="M26.5,44.9v10.3h-1.7v-10.3h1.7Z"/>
    <path class="st3" d="M40.4,44.9v10.3h-1.7v-7.1l-3.2,7.1h-1.2l-3.2-7.1v7.1h-1.7v-10.3h1.8l3.6,8.1,3.6-8.1h1.8Z"/>
    <path class="st3" d="M45.1,46.3v3h3.6v1.4h-3.6v3.2h4v1.4h-5.7v-10.4h5.7v1.4h-4Z"/>
  </g>
</svg>