<?xml version="1.0" encoding="UTF-8"?>
<svg id="Layer_1" data-name="Layer 1" xmlns="http://www.w3.org/2000/svg" version="1.1" viewBox="0 0 20 20">
  <defs>
    <style>
      .cls-1 {
        fill: #1d2327;
        stroke-width: 0px;
      }
    </style>
  </defs>
  <path class="cls-1" d="M10,0C4.5,0,0,4.5,0,10s4.5,10,10,10,10-4.5,10-10S15.5,0,10,0ZM6,17.9C1.9,15.9,0,10.7,1.8,6.5h0c1.5,3.8,2.9,7.6,4.2,11.4h0ZM7.5,18.5c.9-2.5,1.8-5.1,2.6-7.7.9,2.5,1.8,5,2.7,7.5-1.7.6-3.5.7-5.3.2ZM11.2,5.8c.3,0,.6,0,.9,0,.5,0,.5-.8,0-.7-1.6,0-3.1,0-4.6,0-.3,0-.5.2-.4.5,0,.2.2.3.3.3.3,0,.9.2.9.2.4,1.2,1.3,3.6,1.3,3.7-.6,1.8-1.8,5.6-1.9,5.7-1.1-3.2-2.1-6.3-3.2-9.5.5,0,1.4.1,1.4-.5s-.2-.4-.5-.4c-.9,0-2.7,0-2.8,0C5.5.6,11.9,0,15.9,3.4c-1.3,0-1.8,1.2-1.5,2.1.2.5.4.9.6,1.2.3.6.7,1.2.8,1.8.2.8.1,1.6-.2,2.4-.4,1.4-1.2,4.1-1.3,4.3-1-3.1-2-6.2-3.1-9.4ZM14.5,17.6c0-.1,2-5.7,2.9-8.3.4-1.1.5-2.2.4-3.4,2.1,3.7,1,9.2-3.3,11.7Z"/>
</svg>